<?xml version="1.0" encoding="UTF-8" standalone="no"?>
<!-- Created with Inkscape (http://www.inkscape.org/) -->

<svg
   version="1.1"
   id="svg1"
   width="252.25999"
   height="242.92934"
   viewBox="0 0 252.25999 242.92934"
   sodipodi:docname="bg_1dof.pdf"
   xmlns:inkscape="http://www.inkscape.org/namespaces/inkscape"
   xmlns:sodipodi="http://sodipodi.sourceforge.net/DTD/sodipodi-0.dtd"
   xmlns="http://www.w3.org/2000/svg"
   xmlns:svg="http://www.w3.org/2000/svg">
  <defs
     id="defs1" />
  <sodipodi:namedview
     id="namedview1"
     pagecolor="#ffffff"
     bordercolor="#666666"
     borderopacity="1.0"
     inkscape:showpageshadow="2"
     inkscape:pageopacity="0.0"
     inkscape:pagecheckerboard="0"
     inkscape:deskcolor="#d1d1d1">
    <inkscape:page
       x="0"
       y="0"
       inkscape:label="1"
       id="page1"
       width="252.25999"
       height="242.92934"
       margin="0"
       bleed="0" />
  </sodipodi:namedview>
  <g
     id="g1"
     inkscape:groupmode="layer"
     inkscape:label="1">
    <g
       id="g2"
       aria-label="Se:F(t)"
       transform="matrix(1.3333333,0,0,1.3333333,6.4626667,117.65067)">
      <path
         id="path2"
         d="M 3.4791719,-3.8659297 2.2018281,-4.1706172 c -0.6210937,-0.1523437 -1.0078125,-0.6914062 -1.0078125,-1.265625 0,-0.703125 0.5390625,-1.3007812 1.3125,-1.3007812 1.6640625,0 1.8867188,1.6289062 1.9453125,2.0742187 0.011719,0.058594 0.011719,0.1171875 0.1171875,0.1171875 0.1289063,0 0.1289063,-0.046875 0.1289063,-0.234375 v -2.0039062 c 0,-0.1640625 0,-0.234375 -0.1054688,-0.234375 -0.070312,0 -0.082031,0.011719 -0.1523437,0.1289062 l -0.3515625,0.5625 c -0.2929688,-0.28125 -0.703125,-0.6914062 -1.59375,-0.6914062 -1.1015625,0 -1.93359377,0.8789062 -1.93359377,1.9335937 0,0.8203125 0.52734377,1.546875 1.30078127,1.8164063 0.1054687,0.046875 0.6210937,0.1640625 1.3125,0.328125 0.2695312,0.070312 0.5742187,0.140625 0.84375,0.515625 0.2109375,0.2578125 0.3164062,0.5859375 0.3164062,0.9140625 0,0.70312496 -0.5039062,1.41796871 -1.3359375,1.41796871 -0.2929687,0 -1.0429687,-0.046875 -1.5703125,-0.5390625 C 0.84245313,-1.1588984 0.81901563,-1.8034297 0.80729688,-2.1549922 c -0.0117188,-0.1054687 -0.09375,-0.1054687 -0.1171875,-0.1054687 -0.12890625,0 -0.12890625,0.070312 -0.12890625,0.2460937 v 1.99218751 c 0,0.17578125 0,0.24609375 0.10546875,0.24609375 0.0703125,0 0.0820313,-0.0234375 0.15234375,-0.12890625 0,-0.01171875 0.0234375,-0.046875 0.35156247,-0.57421875 0.3164063,0.33984375 0.9492188,0.703125 1.8398438,0.703125 1.1601562,0 1.9570312,-0.984375 1.9570312,-2.07421876 0,-0.9960937 -0.65625,-1.8164062 -1.4882812,-2.015625 z m 3.1699219,1.359375 c 0.058594,-1.4882812 0.9023437,-1.734375 1.2421875,-1.734375 1.0195312,0 1.125,1.3476563 1.125,1.734375 z m -0.011719,0.2109375 h 2.7890625 c 0.2109375,0 0.2460938,0 0.2460938,-0.2109375 0,-0.984375 -0.5390625,-1.9570312 -1.78125,-1.9570312 -1.1601563,0 -2.0742188,1.03125 -2.0742188,2.2734375 0,1.33593746 1.0429688,2.29687496 2.1914063,2.29687496 1.21875,0 1.6640625,-1.1015625 1.6640625,-1.28906246 0,-0.1054688 -0.082031,-0.1171875 -0.1289063,-0.1171875 -0.09375,0 -0.1171875,0.058594 -0.1289062,0.140625 -0.3515625,1.01953121 -1.2539063,1.01953121 -1.3476563,1.01953121 -0.5039062,0 -0.9023437,-0.29296875 -1.125,-0.66796875 C 6.637375,-1.2878047 6.637375,-1.9440547 6.6373748,-2.2956172 Z m 5.2353522,-1.4648437 c 0,-0.2929688 -0.234375,-0.5273438 -0.527344,-0.5273438 -0.28125,0 -0.527344,0.234375 -0.527344,0.5273438 0,0.28125 0.246094,0.5273437 0.527344,0.5273437 0.292969,0 0.527344,-0.2460937 0.527344,-0.5273437 z m 0,3.23437496 c 0,-0.29296875 -0.234375,-0.52734376 -0.527344,-0.52734376 -0.28125,0 -0.527344,0.23437501 -0.527344,0.52734376 0,0.29296875 0.246094,0.52734375 0.527344,0.52734375 0.292969,0 0.527344,-0.234375 0.527344,-0.52734375 z m 0,0"
         style="fill:#000000;fill-opacity:1;fill-rule:nonzero;stroke:none" />
      <path
         id="path3"
         d="m 20.18132,-3.2331172 h 0.960938 c 0.75,0 0.832031,0.1523438 0.832031,0.4453125 0,0.070312 0,0.1875 -0.07031,0.4921875 -0.02344,0.046875 -0.03516,0.082031 -0.03516,0.1054688 0,0.082031 0.05859,0.1171875 0.117188,0.1171875 0.105469,0 0.105469,-0.023437 0.152344,-0.2109375 l 0.550781,-2.15625 c 0.02344,-0.1054688 0.02344,-0.1289063 0.02344,-0.1640625 0,-0.011719 -0.01172,-0.1054688 -0.117187,-0.1054688 -0.09375,0 -0.105469,0.046875 -0.152344,0.2109375 -0.199219,0.7734375 -0.433594,0.9492188 -1.277344,0.9492188 h -0.914062 l 0.644531,-2.53125 c 0.08203,-0.3398438 0.09375,-0.3867188 0.539063,-0.3867188 h 1.3125 c 1.21875,0 1.453125,0.328125 1.453125,1.1015625 0,0.2226563 0,0.2695313 -0.03516,0.5390625 -0.01172,0.1289063 -0.01172,0.140625 -0.01172,0.1757813 0,0.046875 0.02344,0.1171875 0.117187,0.1171875 0.105469,0 0.117188,-0.058594 0.140625,-0.2460938 l 0.199219,-1.7226562 c 0.02344,-0.2695313 -0.02344,-0.2695313 -0.269531,-0.2695313 h -4.886719 c -0.199219,0 -0.292969,0 -0.292969,0.1992188 0,0.1054687 0.09375,0.1054687 0.28125,0.1054687 0.363281,0 0.644531,0 0.644531,0.1875 0,0.035156 0,0.058594 -0.04687,0.234375 l -1.324218,5.27343751 c -0.09375,0.38671875 -0.117188,0.46875 -0.902344,0.46875 -0.164063,0 -0.28125,0 -0.28125,0.1875 0,0.1171875 0.128906,0.1171875 0.152344,0.1171875 0.292968,0 1.03125,-0.03515625 1.3125,-0.03515625 0.328125,0 1.160156,0.03515625 1.488281,0.03515625 0.09375,0 0.210937,0 0.210937,-0.1875 0,-0.0820312 -0.05859,-0.10546875 -0.05859,-0.1171875 -0.03516,0 -0.05859,0 -0.28125,0 -0.222657,0 -0.269532,0 -0.515625,-0.0234375 -0.292969,-0.0351563 -0.328125,-0.0703125 -0.328125,-0.19921875 0,-0.0234375 0,-0.0820313 0.04687,-0.234375 z m 0,0"
         style="fill:#000000;fill-opacity:1;fill-rule:nonzero;stroke:none" />
      <path
         id="path4"
         d="m 28.240891,2.3918828 c 0,-0.035156 0,-0.046875 -0.164063,-0.2226562 -1.242187,-1.25390629 -1.570312,-3.12890629 -1.570312,-4.6640625 0,-1.7226563 0.386718,-3.4570313 1.605468,-4.7109375 0.128907,-0.1171875 0.128907,-0.1289063 0.128907,-0.1640625 0,-0.070312 -0.03516,-0.1054688 -0.09375,-0.1054688 -0.105469,0 -0.996094,0.6796875 -1.582032,1.9453125 -0.515625,1.1015625 -0.632812,2.203125 -0.632812,3.0351563 0,0.7851562 0.117187,1.99218746 0.65625,3.11718746 0.597656,1.21875004 1.453125,1.87500004 1.558594,1.87500004 0.05859,0 0.09375,-0.035156 0.09375,-0.1054688 z m 0,0"
         style="fill:#000000;fill-opacity:1;fill-rule:nonzero;stroke:none" />
      <path
         id="path5"
         d="m 30.87468,-3.9831172 h 0.9375 c 0.199218,0 0.304687,0 0.304687,-0.1992187 0,-0.1054688 -0.105469,-0.1054688 -0.28125,-0.1054688 h -0.878906 c 0.363281,-1.4179687 0.410156,-1.6171875 0.410156,-1.6757812 0,-0.1757813 -0.117187,-0.2695313 -0.292969,-0.2695313 -0.02344,0 -0.304687,0.011719 -0.398437,0.3515625 l -0.386719,1.59375 h -0.9375 c -0.199219,0 -0.292969,0 -0.292969,0.1875 0,0.1171875 0.07031,0.1171875 0.269532,0.1171875 h 0.878906 c -0.714844,2.8242188 -0.75,3.00000001 -0.75,3.17578126 0,0.5390625 0.375,0.9140625 0.914062,0.9140625 1.007813,0 1.582032,-1.45312496 1.582032,-1.53515626 0,-0.09375 -0.08203,-0.09375 -0.117188,-0.09375 -0.09375,0 -0.105469,0.023437 -0.152344,0.140625 -0.433593,1.03125001 -0.960937,1.27734376 -1.300781,1.27734376 -0.199219,0 -0.304687,-0.12890625 -0.304687,-0.45703125 0,-0.24609375 0.02344,-0.31640625 0.05859,-0.48046871 z m 0,0"
         style="fill:#000000;fill-opacity:1;fill-rule:nonzero;stroke:none" />
      <path
         id="path6"
         d="m 35.301438,-2.4948359 c 0,-0.7734375 -0.117188,-1.9804688 -0.65625,-3.1054688 -0.597657,-1.21875 -1.464844,-1.875 -1.558594,-1.875 -0.05859,0 -0.105469,0.046875 -0.105469,0.1054688 0,0.035156 0,0.046875 0.199219,0.234375 0.972656,0.984375 1.535156,2.5664062 1.535156,4.640625 0,1.71093746 -0.363281,3.45703121 -1.59375,4.7226562 -0.140625,0.1171875 -0.140625,0.1289063 -0.140625,0.1640625 0,0.058594 0.04687,0.1054688 0.105469,0.1054688 0.09375,0 0.996094,-0.6796875 1.582031,-1.94531254 0.503906,-1.1015625 0.632813,-2.20312496 0.632813,-3.04687496 z m 0,0"
         style="fill:#000000;fill-opacity:1;fill-rule:nonzero;stroke:none" />
    </g>
    <path
       id="path7"
       d="m 2.9310547,-6.3759687 c 0,-0.234375 0,-0.2578125 -0.234375,-0.2578125 -0.609375,0.6328125 -1.4882813,0.6328125 -1.80468751,0.6328125 v 0.3164062 c 0.19921871,0 0.78515621,0 1.30078121,-0.2578125 v 5.15625 c 0,0.3515625 -0.035156,0.48046875 -0.9257812,0.48046875 H 0.95058594 v 0.3046875 C 1.3021484,-0.036125 2.1576172,-0.036125 2.5560547,-0.036125 c 0.3984375,0 1.265625,0 1.6171875,0.03515625 v -0.3046875 H 3.8568359 c -0.9023437,0 -0.9257812,-0.1171875 -0.9257812,-0.48046875 z m 0,0"
       style="fill:#000000;fill-opacity:1;fill-rule:nonzero;stroke:none"
       aria-label="1"
       transform="matrix(1.3333333,0,0,1.3333333,134.53333,118.61067)" />
    <path
       id="path8"
       d="M 23.3492,0 H 65.86942"
       style="fill:none;stroke:#000000;stroke-width:0.70865;stroke-linecap:butt;stroke-linejoin:miter;stroke-miterlimit:10;stroke-dasharray:none;stroke-opacity:1"
       transform="matrix(1.3333333,0,0,-1.3333333,30.66,114.33067)" />
    <path
       id="path9"
       d="M 0,0 -9.96277,-6.37796"
       style="fill:none;stroke:#000000;stroke-width:0.70865;stroke-linecap:butt;stroke-linejoin:miter;stroke-miterlimit:10;stroke-dasharray:none;stroke-opacity:1"
       transform="matrix(1.3333333,0,0,-1.3333333,118.48589,114.33067)" />
    <g
       id="g9"
       aria-label="I:m"
       transform="matrix(1.3333333,0,0,1.3333333,221.036,118.868)">
      <path
         id="path10"
         d="m 2.2376484,-6.0240469 c 0,-0.3632812 0.035156,-0.46875 0.8203125,-0.46875 h 0.2578125 v -0.3164062 c -0.3515625,0.035156 -1.1367187,0.035156 -1.5117187,0.035156 -0.3867188,0 -1.17187501,0 -1.52343751,-0.035156 v 0.3164062 h 0.2578125 c 0.78515621,0 0.82031251,0.1054688 0.82031251,0.46875 v 5.25000003 c 0,0.3515625 -0.035156,0.46875 -0.82031251,0.46875 H 0.28061719 V -6.09375e-4 C 0.63217969,-0.03576562 1.4173359,-0.03576562 1.7923359,-0.03576562 c 0.3867188,0 1.171875,0 1.5234375,0.035156245 V -0.30529687 H 3.0579609 c -0.7851562,0 -0.8203125,-0.1171875 -0.8203125,-0.46875 z m 3.2695313,2.2617188 c 0,-0.2929688 -0.234375,-0.5273438 -0.5273438,-0.5273438 -0.28125,0 -0.5273437,0.234375 -0.5273437,0.5273438 0,0.28125 0.2460937,0.5273437 0.5273437,0.5273437 0.2929688,0 0.5273438,-0.2460937 0.5273438,-0.5273437 z m 0,3.23437498 c 0,-0.29296875 -0.234375,-0.52734378 -0.5273438,-0.52734378 -0.28125,0 -0.5273437,0.23437503 -0.5273437,0.52734378 0,0.29296875 0.2460937,0.527343745 0.5273437,0.527343745 0.2929688,0 0.5273438,-0.234374995 0.5273438,-0.527343745 z m 0,0"
         style="fill:#000000;fill-opacity:1;fill-rule:nonzero;stroke:none" />
      <path
         id="path11"
         d="m 10.56382,-0.58654687 c -0.03516,0.15234375 -0.09375,0.375 -0.09375,0.421875 0,0.1875 0.140625,0.26953125 0.292969,0.26953125 0.117188,0 0.292969,-0.0703125 0.363281,-0.26953125 0.01172,-0.0234375 0.128907,-0.4921875 0.1875,-0.73828125 l 0.222657,-0.90234378 c 0.05859,-0.2226562 0.117187,-0.4335937 0.175781,-0.6679687 0.03516,-0.1640625 0.117187,-0.4570313 0.128906,-0.4921875 0.140625,-0.3164063 0.667969,-1.21875 1.617188,-1.21875 0.445312,0 0.539062,0.3632812 0.539062,0.6914062 0,0.2578125 -0.07031,0.5390625 -0.152344,0.8320313 l -0.269531,1.1601562 -0.199219,0.75000003 c -0.04687,0.19921875 -0.140625,0.5390625 -0.140625,0.5859375 0,0.1875 0.140625,0.26953125 0.292969,0.26953125 0.304688,0 0.375,-0.24609375 0.445313,-0.5625 0.140625,-0.56249998 0.515625,-2.01562498 0.597656,-2.40234378 0.03516,-0.1289062 0.5625,-1.3242187 1.652344,-1.3242187 0.421875,0 0.539062,0.3398437 0.539062,0.6914062 0,0.5742188 -0.421875,1.7109375 -0.621094,2.2382813 -0.09375,0.234375 -0.128906,0.35156248 -0.128906,0.55078123 0,0.46875 0.351563,0.80859375 0.808594,0.80859375 0.9375,0 1.3125,-1.45312498 1.3125,-1.53515628 0,-0.09375 -0.09375,-0.09375 -0.117188,-0.09375 -0.105468,0 -0.105468,0.023437 -0.152343,0.1757813 -0.152344,0.52734373 -0.46875,1.24218748 -1.019532,1.24218748 -0.164062,0 -0.234375,-0.10546875 -0.234375,-0.328125 0,-0.2578125 0.08203,-0.4921875 0.175782,-0.71484378 0.1875,-0.515625 0.609375,-1.6171875 0.609375,-2.1914062 0,-0.6445313 -0.398438,-1.0664063 -1.148438,-1.0664063 -0.75,0 -1.253906,0.4453125 -1.617187,0.9726563 -0.01172,-0.1289063 -0.04687,-0.46875 -0.328125,-0.7148438 -0.246094,-0.1992187 -0.5625,-0.2578125 -0.808594,-0.2578125 -0.902344,0 -1.382813,0.6445313 -1.558594,0.8671875 -0.04687,-0.5625 -0.46875,-0.8671875 -0.914062,-0.8671875 -0.457032,0 -0.644532,0.3867188 -0.738282,0.5742188 -0.175781,0.3398437 -0.3046872,0.9375 -0.3046872,0.9609375 0,0.1054687 0.09375,0.1054687 0.1171872,0.1054687 0.09375,0 0.105469,-0.011719 0.164063,-0.234375 0.175781,-0.703125 0.375,-1.1835937 0.726562,-1.1835937 0.164063,0 0.316407,0.082031 0.316407,0.4570312 0,0.2109375 -0.03516,0.3164063 -0.164063,0.8320313 z m 0,0"
         style="fill:#000000;fill-opacity:1;fill-rule:nonzero;stroke:none" />
    </g>
    <path
       id="path12"
       d="M 94.92487,0 H 137.4451"
       style="fill:none;stroke:#000000;stroke-width:0.70865;stroke-linecap:butt;stroke-linejoin:miter;stroke-miterlimit:10;stroke-dasharray:none;stroke-opacity:1"
       transform="matrix(1.3333333,0,0,-1.3333333,30.66,114.33067)" />
    <path
       id="path13"
       d="M 0,0 -9.96277,-6.37796"
       style="fill:none;stroke:#000000;stroke-width:0.70865;stroke-linecap:butt;stroke-linejoin:miter;stroke-miterlimit:10;stroke-dasharray:none;stroke-opacity:1"
       transform="matrix(1.3333333,0,0,-1.3333333,213.92013,114.33067)" />
    <g
       id="g13"
       aria-label="R:c"
       transform="matrix(1.3333333,0,0,1.3333333,126.032,23.436)">
      <path
         id="path14"
         d="m 2.226,-3.5145 v -2.578125 c 0,-0.234375 0,-0.3515625 0.2226563,-0.3867187 0.1054687,-0.011719 0.3867187,-0.011719 0.5859375,-0.011719 0.9023437,0 2.015625,0.035156 2.015625,1.4765625 0,0.6914063 -0.234375,1.5 -1.7109375,1.5 z m 2.109375,0.1289063 c 0.9609375,-0.234375 1.7460938,-0.84375 1.7460938,-1.6289063 0,-0.9492187 -1.1367188,-1.7929687 -2.6015625,-1.7929687 H 0.351 v 0.3164062 h 0.234375 c 0.7734375,0 0.7851563,0.1054688 0.7851563,0.46875 v 5.25 c 0,0.3515625 -0.011719,0.46875 -0.7851563,0.46875 H 0.351 V 0.001125 c 0.3515625,-0.03515625 1.0664063,-0.03515625 1.453125,-0.03515625 0.3867188,0 1.0898438,0 1.453125,0.03515625 V -0.3035625 H 3.022875 c -0.7734375,0 -0.796875,-0.1171875 -0.796875,-0.46875 v -2.5195312 h 1.1484375 c 0.1640625,0 0.5742188,0 0.9257813,0.3398437 0.3867187,0.3515625 0.3867187,0.65625 0.3867187,1.3242188 0,0.65624995 0,1.05468745 0.3984375,1.42968745 0.4101563,0.36328125 0.9609375,0.421875 1.2539063,0.421875 0.7851562,0 0.9492187,-0.8203125 0.9492187,-1.1015625 0,-0.0585938 0,-0.16406245 -0.1289062,-0.16406245 -0.1054688,0 -0.1054688,0.0820312 -0.1171875,0.1523437 -0.058594,0.71484375 -0.4101563,0.890625 -0.65625,0.890625 -0.4921875,0 -0.5742188,-0.50390625 -0.703125,-1.4296875 l -0.140625,-0.796875 C 5.366625,-2.8699687 4.8861563,-3.1980937 4.335375,-3.3855937 Z m 4.9072266,-0.375 c 0,-0.2929688 -0.234375,-0.5273438 -0.5273438,-0.5273438 -0.28125,0 -0.5273437,0.234375 -0.5273437,0.5273438 0,0.28125 0.2460937,0.5273437 0.5273437,0.5273437 0.2929688,0 0.5273438,-0.2460937 0.5273438,-0.5273437 z m 0,3.23437495 c 0,-0.29296875 -0.234375,-0.52734375 -0.5273438,-0.52734375 -0.28125,0 -0.5273437,0.234375 -0.5273437,0.52734375 0,0.29296875 0.2460937,0.52734375 0.5273437,0.52734375 0.2929688,0 0.5273438,-0.234375 0.5273438,-0.52734375 z m 0,0"
         style="fill:#000000;fill-opacity:1;fill-rule:nonzero;stroke:none" />
      <path
         id="path15"
         d="m 17.372484,-3.7840312 c -0.164062,0 -0.304687,0 -0.445312,0.140625 -0.152344,0.1523437 -0.175781,0.3164062 -0.175781,0.3867187 0,0.234375 0.175781,0.3515625 0.363281,0.3515625 0.292969,0 0.5625,-0.2460937 0.5625,-0.6445312 0,-0.4804688 -0.46875,-0.8554688 -1.171875,-0.8554688 -1.347656,0 -2.671875,1.4296875 -2.671875,2.8359375 0,0.890625 0.574219,1.67578125 1.617187,1.67578125 1.417969,0 2.261719,-1.0546875 2.261719,-1.17187495 0,-0.058594 -0.07031,-0.1289063 -0.128906,-0.1289063 -0.04687,0 -0.07031,0.023437 -0.128906,0.09375 -0.785157,0.99609375 -1.875,0.99609375 -1.992188,0.99609375 -0.621094,0 -0.890625,-0.4921875 -0.890625,-1.08984375 0,-0.4101562 0.199219,-1.3710937 0.539063,-1.9921875 0.304687,-0.5625 0.855468,-0.9960937 1.40625,-0.9960937 0.328125,0 0.714843,0.1289062 0.855468,0.3984375 z m 0,0"
         style="fill:#000000;fill-opacity:1;fill-rule:nonzero;stroke:none" />
    </g>
    <path
       id="path16"
       d="M 80.39714,14.52771 V 57.04794"
       style="fill:none;stroke:#000000;stroke-width:0.70865;stroke-linecap:butt;stroke-linejoin:miter;stroke-miterlimit:10;stroke-dasharray:none;stroke-opacity:1"
       transform="matrix(1.3333333,0,0,-1.3333333,30.66,114.33067)" />
    <path
       id="path17"
       d="M 0,0 -9.96277,-6.37796"
       style="fill:none;stroke:#000000;stroke-width:0.70865;stroke-linecap:butt;stroke-linejoin:miter;stroke-miterlimit:10;stroke-dasharray:none;stroke-opacity:1"
       transform="matrix(0,-1.3333333,-1.3333333,0,137.85619,38.266747)" />
    <g
       id="g17"
       aria-label="C:1/k"
       transform="matrix(1.3333333,0,0,1.3333333,118.68933,220.21867)">
      <path
         id="path18"
         d="m 0.561125,-3.4100937 c 0,2.0625 1.6054688,3.63281245 3.4570313,3.63281245 1.6289062,0 2.6015625,-1.38281245 2.6015625,-2.54296875 0,-0.1054687 0,-0.1757812 -0.1289063,-0.1757812 -0.1054687,0 -0.1054687,0.070312 -0.1171875,0.1640625 -0.082031,1.42968745 -1.1484375,2.2382812 -2.2265625,2.2382812 -0.609375,0 -2.5664062,-0.33984375 -2.5664062,-3.3046875 0,-2.9765625 1.9453125,-3.3164062 2.5546875,-3.3164062 1.078125,0 1.96875,0.9023437 2.1679687,2.3671875 0.023437,0.1289062 0.023437,0.1640625 0.1640625,0.1640625 0.1523438,0 0.1523438,-0.035156 0.1523438,-0.234375 v -2.3671875 c 0,-0.1640625 0,-0.234375 -0.1054688,-0.234375 -0.035156,0 -0.082031,0 -0.1640625,0.1171875 L 5.858,-6.164 C 5.483,-6.5272812 4.9790938,-7.0194687 4.0181563,-7.0194687 c -1.8632813,0 -3.4570313,1.5820312 -3.4570313,3.609375 z M 9.1040938,-3.7616562 C 9.1040938,-4.054625 8.8697188,-4.289 8.57675,-4.289 c -0.28125,0 -0.5273437,0.234375 -0.5273437,0.5273438 0,0.28125 0.2460937,0.5273437 0.5273437,0.5273437 0.2929688,0 0.5273438,-0.2460937 0.5273438,-0.5273437 z m 0,3.23437495 c 0,-0.29296875 -0.234375,-0.52734375 -0.5273438,-0.52734375 -0.28125,0 -0.5273437,0.234375 -0.5273437,0.52734375 0,0.29296875 0.2460937,0.52734375 0.5273437,0.52734375 0.2929688,0 0.5273438,-0.234375 0.5273438,-0.52734375 z M 16.208586,-6.3749375 c 0,-0.234375 0,-0.2578125 -0.234375,-0.2578125 -0.609375,0.6328125 -1.488281,0.6328125 -1.804688,0.6328125 v 0.3164063 c 0.199219,0 0.785157,0 1.300782,-0.2578125 v 5.15624995 c 0,0.3515625 -0.03516,0.48046875 -0.925782,0.48046875 H 14.228117 V 6.25e-5 c 0.351563,-0.03515625 1.207031,-0.03515625 1.605469,-0.03515625 0.398437,0 1.265625,0 1.617187,0.03515625 V -0.304625 h -0.316406 c -0.902344,0 -0.925781,-0.1171875 -0.925781,-0.48046875 z m 0,0"
         style="fill:#000000;fill-opacity:1;fill-rule:nonzero;stroke:none" />
      <path
         id="path19"
         d="m 22.63632,-7.0897812 c 0.04687,-0.1289063 0.04687,-0.1757813 0.04687,-0.1875 0,-0.1054688 -0.08203,-0.1992188 -0.199218,-0.1992188 -0.07031,0 -0.128907,0.035156 -0.164063,0.09375 l -3.457031,9.4921875 c -0.04687,0.1289063 -0.04687,0.1757813 -0.04687,0.1875 0,0.1054688 0.08203,0.1992188 0.199219,0.1992188 0.128906,0 0.152343,-0.070312 0.210937,-0.2460938 z m 3.46875,0.28125 c 0,0 0,-0.1054688 -0.128906,-0.1054688 -0.234375,0 -0.960937,0.082031 -1.21875,0.1054688 -0.08203,0 -0.1875,0.011719 -0.1875,0.1992187 0,0.1171875 0.09375,0.1171875 0.234375,0.1171875 0.480469,0 0.503906,0.070312 0.503906,0.1640625 l -0.03516,0.1992188 -1.441406,5.74218745 c -0.03516,0.140625 -0.03516,0.15234375 -0.03516,0.22265625 0,0.22265625 0.199218,0.26953125 0.28125,0.26953125 0.128906,0 0.28125,-0.08203125 0.339843,-0.2109375 0.05859,-0.0820313 0.503907,-1.92187495 0.5625,-2.17968745 0.339844,0.035156 1.160157,0.1875 1.160157,0.8554687 0,0.070312 0,0.1054688 -0.03516,0.1992188 -0.02344,0.1289062 -0.03516,0.2460937 -0.03516,0.35156245 0,0.5859375 0.398438,0.984375 0.914063,0.984375 0.292968,0 0.5625,-0.15234375 0.785156,-0.52734375 0.246094,-0.43359375 0.363281,-0.984375 0.363281,-1.0078125 0,-0.09375 -0.09375,-0.09375 -0.128906,-0.09375 -0.09375,0 -0.105469,0.035156 -0.140625,0.1757813 -0.199219,0.72656245 -0.421875,1.24218745 -0.867188,1.24218745 -0.1875,0 -0.316406,-0.1171875 -0.316406,-0.46875 0,-0.17578125 0.04687,-0.3984375 0.08203,-0.56249995 0.03516,-0.1640625 0.03516,-0.2109375 0.03516,-0.3046875 0,-0.65625 -0.621094,-0.9375 -1.464844,-1.0546875 0.304687,-0.1757813 0.621094,-0.4921875 0.855469,-0.7265625 0.480468,-0.5273438 0.9375,-0.9609375 1.417968,-0.9609375 0.05859,0 0.07031,0 0.09375,0.011719 0.117188,0.023437 0.128907,0.023437 0.210938,0.082031 0.02344,0 0.02344,0.011719 0.03516,0.035156 -0.480469,0.035156 -0.5625,0.421875 -0.5625,0.5390625 0,0.1640625 0.105469,0.3515625 0.375,0.3515625 0.257813,0 0.550781,-0.2226562 0.550781,-0.609375 0,-0.3046875 -0.234375,-0.6328125 -0.679687,-0.6328125 -0.28125,0 -0.738281,0.082031 -1.453125,0.8789063 -0.339844,0.375 -0.726563,0.7734375 -1.101563,0.9257812 z m 0,0"
         style="fill:#000000;fill-opacity:1;fill-rule:nonzero;stroke:none" />
    </g>
    <path
       id="path20"
       d="M 80.39714,-14.52771 V -57.04794"
       style="fill:none;stroke:#000000;stroke-width:0.70865;stroke-linecap:butt;stroke-linejoin:miter;stroke-miterlimit:10;stroke-dasharray:none;stroke-opacity:1"
       transform="matrix(1.3333333,0,0,-1.3333333,30.66,114.33067)" />
    <path
       id="path21"
       d="M 0,0 -9.96277,-6.37796"
       style="fill:none;stroke:#000000;stroke-width:0.70865;stroke-linecap:butt;stroke-linejoin:miter;stroke-miterlimit:10;stroke-dasharray:none;stroke-opacity:1"
       transform="matrix(0,1.3333333,1.3333333,0,137.85619,190.39459)" />
  </g>
</svg>
