<?xml version="1.0" encoding="UTF-8" standalone="no"?>
<!-- Created with Inkscape (http://www.inkscape.org/) -->

<svg
   version="1.1"
   id="svg1"
   width="352.63199"
   height="443.12534"
   viewBox="0 0 352.63199 443.12534"
   sodipodi:docname="bg_2dof.pdf"
   xmlns:inkscape="http://www.inkscape.org/namespaces/inkscape"
   xmlns:sodipodi="http://sodipodi.sourceforge.net/DTD/sodipodi-0.dtd"
   xmlns="http://www.w3.org/2000/svg"
   xmlns:svg="http://www.w3.org/2000/svg">
  <defs
     id="defs1" />
  <sodipodi:namedview
     id="namedview1"
     pagecolor="#ffffff"
     bordercolor="#666666"
     borderopacity="1.0"
     inkscape:showpageshadow="2"
     inkscape:pageopacity="0.0"
     inkscape:pagecheckerboard="0"
     inkscape:deskcolor="#d1d1d1">
    <inkscape:page
       x="0"
       y="0"
       inkscape:label="1"
       id="page1"
       width="352.63199"
       height="443.12534"
       margin="0"
       bleed="0" />
  </sodipodi:namedview>
  <g
     id="g1"
     inkscape:groupmode="layer"
     inkscape:label="1">
    <g
       id="g2"
       aria-label="Se:F(t)"
       transform="matrix(1.3333333,0,0,1.3333333,104.40267,33.98)">
      <path
         id="path2"
         d="M 3.4802266,-3.8668359 2.2028828,-4.1715234 c -0.6210937,-0.1523438 -1.0078125,-0.6914063 -1.0078125,-1.265625 0,-0.703125 0.5390625,-1.3007813 1.3125,-1.3007813 1.6640625,0 1.8867188,1.6289063 1.9453125,2.0742188 0.011719,0.058594 0.011719,0.1171875 0.1171875,0.1171875 0.1289063,0 0.1289063,-0.046875 0.1289063,-0.234375 v -2.0039063 c 0,-0.1640625 0,-0.234375 -0.1054688,-0.234375 -0.070312,0 -0.082031,0.011719 -0.1523437,0.1289063 l -0.3515625,0.5625 c -0.2929688,-0.28125 -0.703125,-0.6914063 -1.59375,-0.6914063 -1.1015625,0 -1.93359379,0.8789063 -1.93359379,1.9335938 0,0.8203125 0.52734379,1.546875 1.30078129,1.8164062 0.1054687,0.046875 0.6210937,0.1640625 1.3125,0.328125 0.2695312,0.070312 0.5742187,0.140625 0.84375,0.515625 0.2109375,0.2578125 0.3164062,0.5859375 0.3164062,0.9140625 0,0.70312501 -0.5039062,1.41796876 -1.3359375,1.41796876 -0.2929687,0 -1.0429687,-0.046875 -1.5703125,-0.5390625 C 0.84350781,-1.1598047 0.82007031,-1.8043359 0.80835156,-2.1558984 c -0.0117188,-0.1054688 -0.09375,-0.1054688 -0.1171875,-0.1054688 -0.12890625,0 -0.12890625,0.070312 -0.12890625,0.2460938 v 1.99218746 c 0,0.17578125 0,0.24609375 0.10546875,0.24609375 0.0703125,0 0.0820313,-0.0234375 0.15234375,-0.12890625 0,-0.01171875 0.0234375,-0.046875 0.35156249,-0.57421875 0.3164063,0.33984375 0.9492188,0.703125 1.8398438,0.703125 1.1601562,0 1.9570312,-0.984375 1.9570312,-2.07421871 0,-0.9960938 -0.65625,-1.8164063 -1.4882812,-2.015625 z m 3.1669921,1.359375 c 0.058594,-1.4882813 0.9023438,-1.734375 1.2421875,-1.734375 1.0195313,0 1.125,1.3476562 1.125,1.734375 z M 6.6355,-2.2965234 h 2.7890625 c 0.2109375,0 0.2460937,0 0.2460937,-0.2109375 0,-0.984375 -0.5390625,-1.9570313 -1.78125,-1.9570313 -1.1601562,0 -2.0742187,1.03125 -2.0742187,2.2734375 0,1.33593751 1.0429687,2.29687501 2.1914062,2.29687501 1.21875,0 1.6640625,-1.1015625 1.6640625,-1.28906251 0,-0.1054687 -0.082031,-0.1171875 -0.1289062,-0.1171875 -0.09375,0 -0.1171875,0.058594 -0.1289063,0.140625 -0.3515625,1.01953126 -1.2539062,1.01953126 -1.3476562,1.01953126 -0.5039063,0 -0.9023438,-0.29296875 -1.125,-0.66796875 C 6.6355,-1.2887109 6.6355,-1.9449609 6.6355,-2.2965234 Z m 5.238281,-1.4648438 c 0,-0.2929687 -0.234375,-0.5273437 -0.527344,-0.5273437 -0.28125,0 -0.527343,0.234375 -0.527343,0.5273437 0,0.28125 0.246093,0.5273438 0.527343,0.5273438 0.292969,0 0.527344,-0.2460938 0.527344,-0.5273438 z m 0,3.23437501 c 0,-0.29296875 -0.234375,-0.52734371 -0.527344,-0.52734371 -0.28125,0 -0.527343,0.23437496 -0.527343,0.52734371 0,0.29296875 0.246093,0.5273437525 0.527343,0.5273437525 0.292969,0 0.527344,-0.2343750025 0.527344,-0.5273437525 z m 0,0"
         style="fill:#000000;fill-opacity:1;fill-rule:nonzero;stroke:none" />
      <path
         id="path3"
         d="m 20.182375,-3.2340234 h 0.960937 c 0.75,0 0.832032,0.1523437 0.832032,0.4453125 0,0.070312 0,0.1875 -0.07031,0.4921875 -0.02344,0.046875 -0.03516,0.082031 -0.03516,0.1054687 0,0.082031 0.05859,0.1171875 0.117187,0.1171875 0.105469,0 0.105469,-0.023437 0.152344,-0.2109375 l 0.550781,-2.15625 c 0.02344,-0.1054687 0.02344,-0.1289062 0.02344,-0.1640625 0,-0.011719 -0.01172,-0.1054687 -0.117188,-0.1054687 -0.09375,0 -0.105468,0.046875 -0.152343,0.2109375 -0.199219,0.7734375 -0.433594,0.9492187 -1.277344,0.9492187 h -0.914063 l 0.644532,-2.53125 c 0.08203,-0.3398437 0.09375,-0.3867187 0.539062,-0.3867187 h 1.3125 c 1.21875,0 1.453125,0.328125 1.453125,1.1015625 0,0.2226562 0,0.2695312 -0.03516,0.5390625 -0.01172,0.1289062 -0.01172,0.140625 -0.01172,0.1757812 0,0.046875 0.02344,0.1171875 0.117188,0.1171875 0.105468,0 0.117187,-0.058594 0.140625,-0.2460937 l 0.199218,-1.7226563 c 0.02344,-0.2695312 -0.02344,-0.2695312 -0.269531,-0.2695312 h -4.886719 c -0.199218,0 -0.292968,0 -0.292968,0.1992187 0,0.1054688 0.09375,0.1054688 0.28125,0.1054688 0.363281,0 0.644531,0 0.644531,0.1875 0,0.035156 0,0.058594 -0.04687,0.234375 l -1.324219,5.27343746 c -0.09375,0.38671875 -0.117187,0.46875 -0.902344,0.46875 -0.164062,0 -0.28125,0 -0.28125,0.1875 0,0.1171875025 0.128907,0.1171875025 0.152344,0.1171875025 0.292969,0 1.03125,-0.0351562525 1.3125,-0.0351562525 0.328125,0 1.160156,0.0351562525 1.488281,0.0351562525 0.09375,0 0.210938,0 0.210938,-0.1875000025 0,-0.0820313 -0.05859,-0.10546875 -0.05859,-0.1171875 -0.03516,0 -0.05859,0 -0.28125,0 -0.222656,0 -0.269531,0 -0.515625,-0.0234375 -0.292969,-0.0351563 -0.328125,-0.0703125 -0.328125,-0.19921875 0,-0.0234375 0,-0.0820313 0.04687,-0.234375 z m 0,0"
         style="fill:#000000;fill-opacity:1;fill-rule:nonzero;stroke:none" />
      <path
         id="path4"
         d="m 28.241945,2.3909766 c 0,-0.035156 0,-0.046875 -0.164062,-0.2226563 -1.242188,-1.25390624 -1.570313,-3.12890624 -1.570313,-4.6640625 0,-1.7226562 0.386719,-3.4570312 1.605469,-4.7109375 0.128906,-0.1171875 0.128906,-0.1289062 0.128906,-0.1640625 0,-0.070312 -0.03516,-0.1054687 -0.09375,-0.1054687 -0.105468,0 -0.996093,0.6796875 -1.582031,1.9453125 -0.515625,1.1015625 -0.632812,2.203125 -0.632812,3.0351562 0,0.7851563 0.117187,1.99218751 0.65625,3.11718751 0.597656,1.21874999 1.453125,1.87499999 1.558593,1.87499999 0.05859,0 0.09375,-0.035156 0.09375,-0.1054687 z m 0,0"
         style="fill:#000000;fill-opacity:1;fill-rule:nonzero;stroke:none" />
      <path
         id="path5"
         d="m 30.872805,-3.9840234 h 0.9375 c 0.199218,0 0.304687,0 0.304687,-0.1992188 0,-0.1054687 -0.105469,-0.1054687 -0.28125,-0.1054687 h -0.878906 c 0.363281,-1.4179688 0.410156,-1.6171875 0.410156,-1.6757813 0,-0.1757812 -0.117187,-0.2695312 -0.292969,-0.2695312 -0.02344,0 -0.304687,0.011719 -0.398437,0.3515625 l -0.386719,1.59375 h -0.9375 c -0.199219,0 -0.292969,0 -0.292969,0.1875 0,0.1171875 0.07031,0.1171875 0.269532,0.1171875 h 0.878906 c -0.714844,2.8242187 -0.75,2.99999996 -0.75,3.17578121 0,0.5390625 0.375,0.9140625 0.914062,0.9140625 1.007813,0 1.582032,-1.45312501 1.582032,-1.53515621 0,-0.09375 -0.08203,-0.09375 -0.117188,-0.09375 -0.09375,0 -0.105469,0.023437 -0.152344,0.140625 -0.433593,1.03124996 -0.960937,1.27734371 -1.300781,1.27734371 -0.199219,0 -0.304687,-0.12890625 -0.304687,-0.45703125 0,-0.24609375 0.02344,-0.31640625 0.05859,-0.48046876 z m 0,0"
         style="fill:#000000;fill-opacity:1;fill-rule:nonzero;stroke:none" />
      <path
         id="path6"
         d="m 35.302492,-2.4957422 c 0,-0.7734375 -0.117187,-1.9804687 -0.65625,-3.1054687 -0.597656,-1.21875 -1.464844,-1.875 -1.558594,-1.875 -0.05859,0 -0.105468,0.046875 -0.105468,0.1054687 0,0.035156 0,0.046875 0.199218,0.234375 0.972657,0.984375 1.535157,2.5664063 1.535157,4.640625 0,1.71093751 -0.363282,3.45703126 -1.59375,4.7226563 -0.140625,0.1171875 -0.140625,0.1289062 -0.140625,0.1640625 0,0.058594 0.04687,0.1054687 0.105468,0.1054687 0.09375,0 0.996094,-0.6796875 1.582032,-1.94531249 0.503906,-1.1015625 0.632812,-2.20312501 0.632812,-3.04687501 z m 0,0"
         style="fill:#000000;fill-opacity:1;fill-rule:nonzero;stroke:none" />
    </g>
    <path
       id="path7"
       d="m 2.9286953,-6.3763906 c 0,-0.234375 0,-0.2578125 -0.234375,-0.2578125 -0.609375,0.6328125 -1.4882812,0.6328125 -1.80468749,0.6328125 v 0.3164062 c 0.19921879,0 0.78515629,0 1.30078129,-0.2578125 v 5.15625002 c 0,0.3515625 -0.035156,0.48046875 -0.9257813,0.48046875 H 0.94822656 v 0.3046875 C 1.2997891,-0.03654688 2.1552578,-0.03654688 2.5536953,-0.03654688 c 0.3984375,0 1.265625,0 1.6171875,0.03515625 v -0.3046875 H 3.8544766 c -0.9023438,0 -0.9257813,-0.1171875 -0.9257813,-0.48046875 z m 0,0"
       style="fill:#000000;fill-opacity:1;fill-rule:nonzero;stroke:none"
       aria-label="1"
       transform="matrix(1.3333333,0,0,1.3333333,125.27867,142.13467)" />
    <path
       id="path8"
       d="M 0,-23.3492 V -65.86942"
       style="fill:none;stroke:#000000;stroke-width:0.70865;stroke-linecap:butt;stroke-linejoin:miter;stroke-miterlimit:10;stroke-dasharray:none;stroke-opacity:1"
       transform="matrix(1.3333333,0,0,-1.3333333,128.59867,30.66)" />
    <path
       id="path9"
       d="M 0,0 -9.96277,-6.37796"
       style="fill:none;stroke:#000000;stroke-width:0.70865;stroke-linecap:butt;stroke-linejoin:miter;stroke-miterlimit:10;stroke-dasharray:none;stroke-opacity:1"
       transform="matrix(0,1.3333333,1.3333333,0,128.59867,118.48589)" />
    <g
       id="g9"
       aria-label="I:m"
       transform="matrix(1.3333333,0,0,1.3333333,20.84,142.39333)">
      <path
         id="path10"
         d="m 2.2381641,-6.0225391 c 0,-0.3632812 0.035156,-0.46875 0.8203125,-0.46875 h 0.2578125 v -0.3164062 c -0.3515625,0.035156 -1.1367188,0.035156 -1.5117188,0.035156 -0.3867187,0 -1.17187499,0 -1.52343749,-0.035156 v 0.3164062 h 0.2578125 c 0.78515629,0 0.82031249,0.1054688 0.82031249,0.46875 v 5.25000004 c 0,0.3515625 -0.035156,0.46875 -0.82031249,0.46875 H 0.28113281 V 8.984375e-4 C 0.63269531,-0.03425781 1.4178516,-0.03425781 1.7928516,-0.03425781 c 0.3867187,0 1.171875,0 1.5234375,0.0351562475 V -0.30378906 H 3.0584766 c -0.7851563,0 -0.8203125,-0.1171875 -0.8203125,-0.46875 z m 3.2695312,2.2617188 c 0,-0.2929688 -0.234375,-0.5273438 -0.5273437,-0.5273438 -0.28125,0 -0.5273438,0.234375 -0.5273438,0.5273438 0,0.28125 0.2460938,0.5273437 0.5273438,0.5273437 0.2929687,0 0.5273437,-0.2460937 0.5273437,-0.5273437 z m 0,3.23437499 c 0,-0.29296875 -0.234375,-0.52734379 -0.5273437,-0.52734379 -0.28125,0 -0.5273438,0.23437504 -0.5273438,0.52734379 0,0.29296875 0.2460938,0.5273437475 0.5273438,0.5273437475 0.2929687,0 0.5273437,-0.2343749975 0.5273437,-0.5273437475 z m 0,0"
         style="fill:#000000;fill-opacity:1;fill-rule:nonzero;stroke:none" />
      <path
         id="path11"
         d="m 10.564336,-0.58503906 c -0.03516,0.15234375 -0.09375,0.375 -0.09375,0.421875 0,0.1875 0.140625,0.26953125 0.292969,0.26953125 0.117187,0 0.292968,-0.0703125 0.363281,-0.26953125 0.01172,-0.0234375 0.128906,-0.4921875 0.1875,-0.73828125 l 0.222656,-0.90234379 c 0.05859,-0.2226562 0.117188,-0.4335937 0.175781,-0.6679687 0.03516,-0.1640625 0.117188,-0.4570313 0.128907,-0.4921875 0.140625,-0.3164063 0.667968,-1.21875 1.617187,-1.21875 0.445313,0 0.539063,0.3632812 0.539063,0.6914062 0,0.2578125 -0.07031,0.5390625 -0.152344,0.8320313 l -0.269531,1.1601562 -0.199219,0.75000004 c -0.04687,0.19921875 -0.140625,0.5390625 -0.140625,0.5859375 0,0.1875 0.140625,0.26953125 0.292969,0.26953125 0.304687,0 0.375,-0.24609375 0.445312,-0.5625 0.140625,-0.56249999 0.515625,-2.01562499 0.597656,-2.40234379 0.03516,-0.1289062 0.5625,-1.3242187 1.652344,-1.3242187 0.421875,0 0.539063,0.3398437 0.539063,0.6914062 0,0.5742188 -0.421875,1.7109375 -0.621094,2.2382813 -0.09375,0.234375 -0.128906,0.35156249 -0.128906,0.55078124 0,0.46875 0.351562,0.80859375 0.808593,0.80859375 0.9375,0 1.3125,-1.45312499 1.3125,-1.53515629 0,-0.09375 -0.09375,-0.09375 -0.117187,-0.09375 -0.105469,0 -0.105469,0.023437 -0.152344,0.1757813 -0.152344,0.52734374 -0.46875,1.24218749 -1.019531,1.24218749 -0.164063,0 -0.234375,-0.10546875 -0.234375,-0.328125 0,-0.2578125 0.08203,-0.4921875 0.175781,-0.71484379 0.1875,-0.515625 0.609375,-1.6171875 0.609375,-2.1914062 0,-0.6445313 -0.398437,-1.0664063 -1.148437,-1.0664063 -0.75,0 -1.253907,0.4453125 -1.617188,0.9726563 -0.01172,-0.1289063 -0.04687,-0.46875 -0.328125,-0.7148438 -0.246094,-0.1992187 -0.5625,-0.2578125 -0.808594,-0.2578125 -0.902343,0 -1.382812,0.6445313 -1.558593,0.8671875 -0.04687,-0.5625 -0.46875,-0.8671875 -0.914063,-0.8671875 -0.457031,0 -0.644531,0.3867188 -0.738281,0.5742188 -0.175781,0.3398437 -0.3046876,0.9375 -0.3046876,0.9609375 0,0.1054687 0.09375,0.1054687 0.1171876,0.1054687 0.09375,0 0.105469,-0.011719 0.164062,-0.234375 0.175782,-0.703125 0.375,-1.1835937 0.726563,-1.1835937 0.164062,0 0.316406,0.082031 0.316406,0.4570312 0,0.2109375 -0.03516,0.3164063 -0.164062,0.8320313 z m 0,0"
         style="fill:#000000;fill-opacity:1;fill-rule:nonzero;stroke:none" />
    </g>
    <path
       id="path12"
       d="M -14.52771,-80.39714 H -57.04794"
       style="fill:none;stroke:#000000;stroke-width:0.70865;stroke-linecap:butt;stroke-linejoin:miter;stroke-miterlimit:10;stroke-dasharray:none;stroke-opacity:1"
       transform="matrix(1.3333333,0,0,-1.3333333,128.59867,30.66)" />
    <path
       id="path13"
       d="M 0,0 -9.96277,-6.37796"
       style="fill:none;stroke:#000000;stroke-width:0.70865;stroke-linecap:butt;stroke-linejoin:miter;stroke-miterlimit:10;stroke-dasharray:none;stroke-opacity:1"
       transform="matrix(-1.3333333,0,0,1.3333333,52.534747,137.85619)" />
    <path
       id="path14"
       d="m 4.5810391,-3.1886953 c 0,-0.796875 -0.046875,-1.59375 -0.3984375,-2.3320313 -0.4570313,-0.9609375 -1.2773438,-1.1132812 -1.6875,-1.1132812 -0.5976563,0 -1.3359375,0.2578125 -1.73437504,1.1835937 -0.328125,0.6914063 -0.375,1.4648438 -0.375,2.2617188 0,0.75 0.046875,1.640625 0.4453125,2.40234374 0.43359374,0.80859375 1.16015624,1.0078125 1.65234374,1.0078125 0.5390625,0 1.2890625,-0.2109375 1.734375,-1.16015625 C 4.5341641,-1.6301016 4.5810391,-2.4035391 4.5810391,-3.1886953 Z m -2.0976563,3.18749999 c -0.3867187,0 -0.984375,-0.24609375 -1.1601562,-1.20703129 -0.1054688,-0.5976562 -0.1054688,-1.5117187 -0.1054688,-2.0976562 0,-0.6445313 0,-1.3007813 0.082031,-1.8398438 0.1875,-1.1835937 0.9257812,-1.265625 1.1835937,-1.265625 0.328125,0 0.984375,0.1757813 1.171875,1.1601563 0.09375,0.5625 0.09375,1.3125 0.09375,1.9453125 0,0.75 0,1.4179687 -0.1054687,2.0625 -0.1523438,0.93749999 -0.7148438,1.24218749 -1.160156,1.24218749 z m 0,0"
       style="fill:#000000;fill-opacity:1;fill-rule:nonzero;stroke:none"
       aria-label="0"
       transform="matrix(1.3333333,0,0,1.3333333,125.27867,237.568)" />
    <path
       id="path15"
       d="M 0,-94.92487 V -137.4451"
       style="fill:none;stroke:#000000;stroke-width:0.70865;stroke-linecap:butt;stroke-linejoin:miter;stroke-miterlimit:10;stroke-dasharray:none;stroke-opacity:1"
       transform="matrix(1.3333333,0,0,-1.3333333,128.59867,30.66)" />
    <path
       id="path16"
       d="M 0,0 -9.96277,-6.37796"
       style="fill:none;stroke:#000000;stroke-width:0.70865;stroke-linecap:butt;stroke-linejoin:miter;stroke-miterlimit:10;stroke-dasharray:none;stroke-opacity:1"
       transform="matrix(0,1.3333333,1.3333333,0,128.59867,213.92013)" />
    <path
       id="path17"
       d="m 2.9288906,-6.3761953 c 0,-0.234375 0,-0.2578125 -0.234375,-0.2578125 -0.609375,0.6328125 -1.4882812,0.6328125 -1.80468747,0.6328125 v 0.3164062 c 0.19921877,0 0.78515627,0 1.30078127,-0.2578125 v 5.15625004 c 0,0.3515625 -0.035156,0.48046875 -0.9257813,0.48046875 H 0.94842188 v 0.3046875 C 1.2999844,-0.03635156 2.1554531,-0.03635156 2.5538906,-0.03635156 c 0.3984375,0 1.265625,0 1.6171875,0.03515625 v -0.3046875 H 3.8546719 c -0.9023438,0 -0.9257813,-0.1171875 -0.9257813,-0.48046875 z m 0,0"
       style="fill:#000000;fill-opacity:1;fill-rule:nonzero;stroke:none"
       aria-label="1"
       transform="matrix(1.3333333,0,0,1.3333333,220.712,237.568)" />
    <path
       id="path18"
       d="M 14.52771,-151.97282 H 57.04794"
       style="fill:none;stroke:#000000;stroke-width:0.70865;stroke-linecap:butt;stroke-linejoin:miter;stroke-miterlimit:10;stroke-dasharray:none;stroke-opacity:1"
       transform="matrix(1.3333333,0,0,-1.3333333,128.59867,30.66)" />
    <path
       id="path19"
       d="M 0,0 -9.96277,-6.37796"
       style="fill:none;stroke:#000000;stroke-width:0.70865;stroke-linecap:butt;stroke-linejoin:miter;stroke-miterlimit:10;stroke-dasharray:none;stroke-opacity:1"
       transform="matrix(1.3333333,0,0,-1.3333333,204.66259,233.29043)" />
    <g
       id="g19"
       aria-label="R:c"
       transform="matrix(1.3333333,0,0,1.3333333,212.21067,142.39333)">
      <path
         id="path20"
         d="m 2.2267656,-3.5147266 v -2.578125 c 0,-0.234375 0,-0.3515625 0.2226563,-0.3867187 0.1054687,-0.011719 0.3867187,-0.011719 0.5859375,-0.011719 0.9023437,0 2.015625,0.035156 2.015625,1.4765625 0,0.6914063 -0.234375,1.5 -1.7109375,1.5 z m 2.109375,0.1289063 c 0.9609375,-0.234375 1.7460938,-0.84375 1.7460938,-1.6289063 0,-0.9492187 -1.1367188,-1.7929687 -2.6015625,-1.7929687 H 0.35176562 v 0.3164062 h 0.234375 c 0.77343748,0 0.78515628,0.1054688 0.78515628,0.46875 v 5.25000004 c 0,0.3515625 -0.011719,0.46875 -0.78515628,0.46875 h -0.234375 V 8.984375e-4 C 0.70332812,-0.03425781 1.4181719,-0.03425781 1.8048906,-0.03425781 c 0.3867188,0 1.0898438,0 1.453125,0.0351562475 V -0.30378906 h -0.234375 c -0.7734375,0 -0.796875,-0.1171875 -0.796875,-0.46875 V -3.2920703 h 1.1484375 c 0.1640625,0 0.5742188,0 0.9257813,0.3398437 0.3867187,0.3515625 0.3867187,0.65625 0.3867187,1.3242188 0,0.65624999 0,1.05468749 0.3984375,1.42968749 0.4101563,0.36328125 0.9609375,0.421875 1.2539063,0.421875 0.7851562,0 0.9492187,-0.8203125 0.9492187,-1.1015625 0,-0.0585938 0,-0.16406249 -0.1289062,-0.16406249 -0.1054688,0 -0.1054688,0.0820312 -0.1171875,0.15234374 -0.058594,0.71484375 -0.4101563,0.8906249975 -0.65625,0.8906249975 -0.4921875,0 -0.5742188,-0.5039062475 -0.703125,-1.4296875375 l -0.140625,-0.796875 C 5.3673906,-2.8701953 4.8869219,-3.1983203 4.3361406,-3.3858203 Z m 4.9072266,-0.375 c 0,-0.2929688 -0.234375,-0.5273438 -0.5273438,-0.5273438 -0.28125,0 -0.5273437,0.234375 -0.5273437,0.5273438 0,0.28125 0.2460937,0.5273437 0.5273437,0.5273437 0.2929688,0 0.5273438,-0.2460937 0.5273438,-0.5273437 z m 0,3.23437499 c 0,-0.29296875 -0.234375,-0.52734379 -0.5273438,-0.52734379 -0.28125,0 -0.5273437,0.23437504 -0.5273437,0.52734379 0,0.29296875 0.2460937,0.5273437475 0.5273437,0.5273437475 0.2929688,0 0.5273438,-0.2343749975 0.5273438,-0.5273437475 z m 0,0"
         style="fill:#000000;fill-opacity:1;fill-rule:nonzero;stroke:none" />
      <path
         id="path21"
         d="m 17.37032,-3.7842578 c -0.164062,0 -0.304687,0 -0.445312,0.140625 -0.152344,0.1523437 -0.175781,0.3164062 -0.175781,0.3867187 0,0.234375 0.175781,0.3515625 0.363281,0.3515625 0.292969,0 0.5625,-0.2460937 0.5625,-0.6445312 0,-0.4804688 -0.46875,-0.8554688 -1.171875,-0.8554688 -1.347656,0 -2.671875,1.4296875 -2.671875,2.8359375 0,0.89062504 0.574219,1.67578129 1.617187,1.67578129 1.417969,0 2.261719,-1.0546875 2.261719,-1.17187499 0,-0.058594 -0.07031,-0.1289063 -0.128906,-0.1289063 -0.04687,0 -0.07031,0.023437 -0.128906,0.09375 -0.785157,0.99609379 -1.875,0.99609379 -1.992188,0.99609379 -0.621094,0 -0.890625,-0.4921875 -0.890625,-1.08984379 0,-0.4101562 0.199219,-1.3710937 0.539063,-1.9921875 0.304687,-0.5625 0.855468,-0.9960937 1.40625,-0.9960937 0.328125,0 0.714843,0.1289062 0.855468,0.3984375 z m 0,0"
         style="fill:#000000;fill-opacity:1;fill-rule:nonzero;stroke:none" />
    </g>
    <path
       id="path22"
       d="m 71.57567,-137.4451 v 42.52023"
       style="fill:none;stroke:#000000;stroke-width:0.70865;stroke-linecap:butt;stroke-linejoin:miter;stroke-miterlimit:10;stroke-dasharray:none;stroke-opacity:1"
       transform="matrix(1.3333333,0,0,-1.3333333,128.59867,30.66)" />
    <path
       id="path23"
       d="M 0,0 -9.96277,-6.37796"
       style="fill:none;stroke:#000000;stroke-width:0.70865;stroke-linecap:butt;stroke-linejoin:miter;stroke-miterlimit:10;stroke-dasharray:none;stroke-opacity:1"
       transform="matrix(0,-1.3333333,-1.3333333,0,224.03289,157.22649)" />
    <g
       id="g23"
       aria-label="C:1/k"
       transform="matrix(1.3333333,0,0,1.3333333,307.43467,236.608)">
      <path
         id="path24"
         d="m 0.56169531,-3.409125 c 0,2.0625 1.60546879,3.6328125 3.45703129,3.6328125 1.6289062,0 2.6015625,-1.3828125 2.6015625,-2.5429688 0,-0.1054687 0,-0.1757812 -0.1289063,-0.1757812 -0.1054687,0 -0.1054687,0.070312 -0.1171875,0.1640625 -0.082031,1.4296875 -1.1484375,2.23828125 -2.2265625,2.23828125 -0.609375,0 -2.5664062,-0.33984375 -2.5664062,-3.30468755 0,-2.9765625 1.9453125,-3.3164062 2.5546875,-3.3164062 1.078125,0 1.96875,0.9023437 2.1679687,2.3671875 0.023437,0.1289062 0.023437,0.1640625 0.1640625,0.1640625 0.1523438,0 0.1523438,-0.035156 0.1523438,-0.234375 V -6.784125 c 0,-0.1640625 0,-0.234375 -0.1054688,-0.234375 -0.035156,0 -0.082031,0 -0.1640625,0.1171875 L 5.8585703,-6.1630313 C 5.4835703,-6.5263125 4.9796641,-7.0185 4.0187266,-7.0185 c -1.8632813,0 -3.45703129,1.5820312 -3.45703129,3.609375 z M 9.1046641,-3.7606875 c 0,-0.2929688 -0.234375,-0.5273438 -0.5273438,-0.5273438 -0.28125,0 -0.5273437,0.234375 -0.5273437,0.5273438 0,0.28125 0.2460937,0.5273437 0.5273437,0.5273437 0.2929688,0 0.5273438,-0.2460937 0.5273438,-0.5273437 z m 0,3.234375 c 0,-0.29296875 -0.234375,-0.5273438 -0.5273438,-0.5273438 -0.28125,0 -0.5273437,0.23437505 -0.5273437,0.5273438 0,0.29296875 0.2460937,0.52734375 0.5273437,0.52734375 0.2929688,0 0.5273438,-0.234375 0.5273438,-0.52734375 z m 7.1044919,-5.8476563 c 0,-0.234375 0,-0.2578125 -0.234375,-0.2578125 -0.609375,0.6328125 -1.488281,0.6328125 -1.804687,0.6328125 v 0.3164063 c 0.199219,0 0.785156,0 1.300781,-0.2578125 v 5.15625 c 0,0.3515625 -0.03516,0.48046875 -0.925781,0.48046875 h -0.316406 v 0.3046875 C 14.58025,-0.034125 15.435719,-0.034125 15.834156,-0.034125 c 0.398438,0 1.265625,0 1.617188,0.03515625 v -0.3046875 h -0.316406 c -0.902344,0 -0.925782,-0.1171875 -0.925782,-0.48046875 z m 0,0"
         style="fill:#000000;fill-opacity:1;fill-rule:nonzero;stroke:none" />
      <path
         id="path25"
         d="m 22.636891,-7.0888125 c 0.04687,-0.1289063 0.04687,-0.1757813 0.04687,-0.1875 0,-0.1054688 -0.08203,-0.1992188 -0.199219,-0.1992188 -0.07031,0 -0.128906,0.035156 -0.164063,0.09375 l -3.457031,9.4921875 c -0.04687,0.1289063 -0.04687,0.1757813 -0.04687,0.1875 0,0.1054688 0.08203,0.1992188 0.199219,0.1992188 0.128906,0 0.152344,-0.070312 0.210937,-0.2460938 z m 3.46875,0.28125 c 0,0 0,-0.1054688 -0.128907,-0.1054688 -0.234375,0 -0.960937,0.082031 -1.21875,0.1054688 -0.08203,0 -0.1875,0.011719 -0.1875,0.1992187 0,0.1171875 0.09375,0.1171875 0.234375,0.1171875 0.480469,0 0.503907,0.070312 0.503907,0.1640625 l -0.03516,0.1992188 -1.441406,5.7421875 c -0.03516,0.140625 -0.03516,0.15234375 -0.03516,0.22265625 0,0.22265625 0.199219,0.26953125 0.28125,0.26953125 0.128906,0 0.28125,-0.08203125 0.339844,-0.2109375 0.05859,-0.0820312 0.503906,-1.921875 0.5625,-2.1796875 0.339843,0.035156 1.160156,0.1875 1.160156,0.8554687 0,0.070312 0,0.1054688 -0.03516,0.1992188 -0.02344,0.1289062 -0.03516,0.24609375 -0.03516,0.3515625 0,0.5859375 0.398438,0.984375 0.914063,0.984375 0.292969,0 0.5625,-0.15234375 0.785156,-0.52734375 0.246094,-0.43359375 0.363281,-0.98437505 0.363281,-1.00781255 0,-0.09375 -0.09375,-0.09375 -0.128906,-0.09375 -0.09375,0 -0.105469,0.035156 -0.140625,0.1757813 -0.199219,0.7265625 -0.421875,1.2421875 -0.867187,1.2421875 -0.1875,0 -0.316407,-0.1171875 -0.316407,-0.46875 0,-0.17578125 0.04687,-0.3984375 0.08203,-0.5625 0.03516,-0.1640625 0.03516,-0.2109375 0.03516,-0.3046875 0,-0.65625 -0.621094,-0.9375 -1.464844,-1.0546875 0.304688,-0.1757813 0.621094,-0.4921875 0.855469,-0.7265625 0.480469,-0.5273438 0.9375,-0.9609375 1.417969,-0.9609375 0.05859,0 0.07031,0 0.09375,0.011719 0.117187,0.023437 0.128906,0.023437 0.210937,0.082031 0.02344,0 0.02344,0.011719 0.03516,0.035156 -0.480468,0.035156 -0.5625,0.421875 -0.5625,0.5390625 0,0.1640625 0.105469,0.3515625 0.375,0.3515625 0.257813,0 0.550782,-0.2226562 0.550782,-0.609375 0,-0.3046875 -0.234375,-0.6328125 -0.679688,-0.6328125 -0.28125,0 -0.738281,0.082031 -1.453125,0.8789063 -0.339844,0.375 -0.726562,0.7734375 -1.101562,0.9257812 z m 0,0"
         style="fill:#000000;fill-opacity:1;fill-rule:nonzero;stroke:none" />
    </g>
    <path
       id="path26"
       d="m 86.1034,-151.97282 h 42.52021"
       style="fill:none;stroke:#000000;stroke-width:0.70865;stroke-linecap:butt;stroke-linejoin:miter;stroke-miterlimit:10;stroke-dasharray:none;stroke-opacity:1"
       transform="matrix(1.3333333,0,0,-1.3333333,128.59867,30.66)" />
    <path
       id="path27"
       d="M 0,0 -9.96277,-6.37796"
       style="fill:none;stroke:#000000;stroke-width:0.70865;stroke-linecap:butt;stroke-linejoin:miter;stroke-miterlimit:10;stroke-dasharray:none;stroke-opacity:1"
       transform="matrix(1.3333333,0,0,-1.3333333,300.09681,233.29043)" />
    <path
       id="path28"
       d="m 2.9286953,-6.375 c 0,-0.234375 0,-0.2578125 -0.234375,-0.2578125 C 2.0849453,-6 1.2060391,-6 0.88963281,-6 v 0.3164063 c 0.19921879,0 0.78515629,0 1.30078129,-0.2578125 v 5.15624995 c 0,0.3515625 -0.035156,0.48046875 -0.9257813,0.48046875 H 0.94822656 V 0 C 1.2997891,-0.03515625 2.1552578,-0.03515625 2.5536953,-0.03515625 c 0.3984375,0 1.265625,0 1.6171875,0.03515625 V -0.3046875 H 3.8544766 c -0.9023438,0 -0.9257813,-0.1171875 -0.9257813,-0.48046875 z m 0,0"
       style="fill:#000000;fill-opacity:1;fill-rule:nonzero;stroke:none"
       aria-label="1"
       transform="matrix(1.3333333,0,0,1.3333333,125.27867,333)" />
    <path
       id="path29"
       d="m 0,-166.50055 v -42.52022"
       style="fill:none;stroke:#000000;stroke-width:0.70865;stroke-linecap:butt;stroke-linejoin:miter;stroke-miterlimit:10;stroke-dasharray:none;stroke-opacity:1"
       transform="matrix(1.3333333,0,0,-1.3333333,128.59867,30.66)" />
    <path
       id="path30"
       d="M 0,0 -9.96277,-6.37796"
       style="fill:none;stroke:#000000;stroke-width:0.70865;stroke-linecap:butt;stroke-linejoin:miter;stroke-miterlimit:10;stroke-dasharray:none;stroke-opacity:1"
       transform="matrix(0,1.3333333,1.3333333,0,128.59867,309.35436)" />
    <g
       id="g30"
       aria-label="I:m"
       transform="matrix(1.3333333,0,0,1.3333333,116.31067,428.72933)">
      <path
         id="path31"
         d="m 2.2396562,-6.0225859 c 0,-0.3632813 0.035156,-0.46875 0.8203125,-0.46875 h 0.2578125 v -0.3164063 c -0.3515625,0.035156 -1.1367187,0.035156 -1.5117187,0.035156 -0.3867188,0 -1.171875,0 -1.5234375,-0.035156 v 0.3164063 h 0.2578125 c 0.7851562,0 0.8203125,0.1054687 0.8203125,0.46875 v 5.24999996 c 0,0.3515625 -0.035156,0.46875 -0.8203125,0.46875 H 0.282625 V 8.515625e-4 C 0.6341875,-0.03430469 1.4193437,-0.03430469 1.7943437,-0.03430469 c 0.3867188,0 1.171875,0 1.5234375,0.0351562525 V -0.30383594 H 3.0599687 c -0.7851562,0 -0.8203125,-0.1171875 -0.8203125,-0.46875 z m 3.2666016,2.2617187 c 0,-0.2929687 -0.234375,-0.5273437 -0.5273437,-0.5273437 -0.28125,0 -0.5273438,0.234375 -0.5273438,0.5273437 0,0.28125 0.2460938,0.5273438 0.5273438,0.5273438 0.2929687,0 0.5273437,-0.2460938 0.5273437,-0.5273438 z m 0,3.23437501 c 0,-0.29296875 -0.234375,-0.52734371 -0.5273437,-0.52734371 -0.28125,0 -0.5273438,0.23437496 -0.5273438,0.52734371 0,0.29296875 0.2460938,0.5273437525 0.5273438,0.5273437525 0.2929687,0 0.5273437,-0.2343750025 0.5273437,-0.5273437525 z m 0,0"
         style="fill:#000000;fill-opacity:1;fill-rule:nonzero;stroke:none" />
      <path
         id="path32"
         d="m 10.565828,-0.58508594 c -0.03516,0.15234375 -0.09375,0.375 -0.09375,0.421875 0,0.1875 0.140625,0.26953125 0.292969,0.26953125 0.117187,0 0.292969,-0.0703125 0.363281,-0.26953125 0.01172,-0.0234375 0.128906,-0.4921875 0.1875,-0.73828125 l 0.222656,-0.90234371 c 0.05859,-0.2226563 0.117188,-0.4335938 0.175782,-0.6679688 0.03516,-0.1640625 0.117187,-0.4570312 0.128906,-0.4921875 0.140625,-0.3164062 0.667969,-1.21875 1.617187,-1.21875 0.445313,0 0.539063,0.3632813 0.539063,0.6914063 0,0.2578125 -0.07031,0.5390625 -0.152344,0.8320312 l -0.269531,1.1601563 -0.199219,0.74999996 c -0.04687,0.19921875 -0.140625,0.5390625 -0.140625,0.5859375 0,0.1875 0.140625,0.26953125 0.292969,0.26953125 0.304687,0 0.375,-0.24609375 0.445312,-0.5625 0.140625,-0.56250001 0.515625,-2.01562501 0.597657,-2.40234371 0.03516,-0.1289063 0.5625,-1.3242188 1.652343,-1.3242188 0.421875,0 0.539063,0.3398438 0.539063,0.6914063 0,0.5742187 -0.421875,1.7109375 -0.621094,2.2382812 -0.09375,0.234375 -0.128906,0.35156251 -0.128906,0.55078126 0,0.46875 0.351562,0.80859375 0.808594,0.80859375 0.9375,0 1.3125,-1.45312501 1.3125,-1.53515621 0,-0.09375 -0.09375,-0.09375 -0.117188,-0.09375 -0.105469,0 -0.105469,0.023437 -0.152344,0.1757812 -0.152343,0.52734376 -0.46875,1.24218751 -1.019531,1.24218751 -0.164062,0 -0.234375,-0.10546875 -0.234375,-0.328125 0,-0.2578125 0.08203,-0.4921875 0.175781,-0.71484371 0.1875,-0.515625 0.609375,-1.6171875 0.609375,-2.1914063 0,-0.6445312 -0.398437,-1.0664062 -1.148437,-1.0664062 -0.75,0 -1.253906,0.4453125 -1.617188,0.9726562 -0.01172,-0.1289062 -0.04687,-0.46875 -0.328125,-0.7148437 -0.246093,-0.1992188 -0.5625,-0.2578125 -0.808593,-0.2578125 -0.902344,0 -1.382813,0.6445312 -1.558594,0.8671875 -0.04687,-0.5625 -0.46875,-0.8671875 -0.914063,-0.8671875 -0.457031,0 -0.644531,0.3867187 -0.738281,0.5742187 -0.175781,0.3398438 -0.3046874,0.9375 -0.3046874,0.9609375 0,0.1054688 0.09375,0.1054688 0.1171874,0.1054688 0.09375,0 0.105469,-0.011719 0.164063,-0.234375 0.175781,-0.703125 0.375,-1.1835938 0.726562,-1.1835938 0.164063,0 0.316406,0.082031 0.316406,0.4570313 0,0.2109375 -0.03516,0.3164062 -0.164062,0.8320312 z m 0,0"
         style="fill:#000000;fill-opacity:1;fill-rule:nonzero;stroke:none" />
    </g>
    <path
       id="path33"
       d="m 0,-238.07622 v -42.52022"
       style="fill:none;stroke:#000000;stroke-width:0.70865;stroke-linecap:butt;stroke-linejoin:miter;stroke-miterlimit:10;stroke-dasharray:none;stroke-opacity:1"
       transform="matrix(1.3333333,0,0,-1.3333333,128.59867,30.66)" />
    <path
       id="path34"
       d="M 0,0 -9.96277,-6.37796"
       style="fill:none;stroke:#000000;stroke-width:0.70865;stroke-linecap:butt;stroke-linejoin:miter;stroke-miterlimit:10;stroke-dasharray:none;stroke-opacity:1"
       transform="matrix(0,1.3333333,1.3333333,0,128.59867,404.78859)" />
    <g
       id="g34"
       aria-label="R:c"
       transform="matrix(1.3333333,0,0,1.3333333,212.21067,333.25867)">
      <path
         id="path35"
         d="m 2.2267656,-3.5162656 v -2.578125 c 0,-0.234375 0,-0.3515625 0.2226563,-0.3867188 0.1054687,-0.011719 0.3867187,-0.011719 0.5859375,-0.011719 0.9023437,0 2.015625,0.035156 2.015625,1.4765625 0,0.6914062 -0.234375,1.5 -1.7109375,1.5 z m 2.109375,0.1289062 c 0.9609375,-0.234375 1.7460938,-0.84375 1.7460938,-1.6289062 0,-0.9492188 -1.1367188,-1.7929688 -2.6015625,-1.7929688 H 0.35176562 v 0.3164063 h 0.234375 c 0.77343748,0 0.78515628,0.1054687 0.78515628,0.46875 v 5.24999997 c 0,0.3515625 -0.011719,0.46875 -0.78515628,0.46875 h -0.234375 V -6.40625e-4 C 0.70332812,-0.03579688 1.4181719,-0.03579688 1.8048906,-0.03579688 c 0.3867188,0 1.0898438,0 1.453125,0.035156255 V -0.30532813 h -0.234375 c -0.7734375,0 -0.796875,-0.1171875 -0.796875,-0.46875 V -3.2936094 h 1.1484375 c 0.1640625,0 0.5742188,0 0.9257813,0.3398438 0.3867187,0.3515625 0.3867187,0.65625 0.3867187,1.3242187 0,0.65625002 0,1.05468752 0.3984375,1.42968752 0.4101563,0.36328125 0.9609375,0.421875 1.2539063,0.421875 0.7851562,0 0.9492187,-0.8203125 0.9492187,-1.1015625 0,-0.0585938 0,-0.16406252 -0.1289062,-0.16406252 -0.1054688,0 -0.1054688,0.0820313 -0.1171875,0.15234377 -0.058594,0.71484375 -0.4101563,0.890625005 -0.65625,0.890625005 -0.4921875,0 -0.5742188,-0.503906255 -0.703125,-1.429687475 l -0.140625,-0.796875 C 5.3673906,-2.8717344 4.8869219,-3.1998594 4.3361406,-3.3873594 Z m 4.9072266,-0.375 c 0,-0.2929687 -0.234375,-0.5273437 -0.5273438,-0.5273437 -0.28125,0 -0.5273437,0.234375 -0.5273437,0.5273437 0,0.28125 0.2460937,0.5273438 0.5273437,0.5273438 0.2929688,0 0.5273438,-0.2460938 0.5273438,-0.5273438 z m 0,3.23437502 c 0,-0.29296875 -0.234375,-0.52734372 -0.5273438,-0.52734372 -0.28125,0 -0.5273437,0.23437497 -0.5273437,0.52734372 0,0.29296875 0.2460937,0.527343755 0.5273437,0.527343755 0.2929688,0 0.5273438,-0.234375005 0.5273438,-0.527343755 z m 0,0"
         style="fill:#000000;fill-opacity:1;fill-rule:nonzero;stroke:none" />
      <path
         id="path36"
         d="m 17.37032,-3.7857969 c -0.164062,0 -0.304687,0 -0.445312,0.140625 -0.152344,0.1523438 -0.175781,0.3164063 -0.175781,0.3867188 0,0.234375 0.175781,0.3515625 0.363281,0.3515625 0.292969,0 0.5625,-0.2460938 0.5625,-0.6445313 0,-0.4804687 -0.46875,-0.8554687 -1.171875,-0.8554687 -1.347656,0 -2.671875,1.4296875 -2.671875,2.8359375 0,0.89062497 0.574219,1.67578122 1.617187,1.67578122 1.417969,0 2.261719,-1.0546875 2.261719,-1.17187502 0,-0.058594 -0.07031,-0.1289062 -0.128906,-0.1289062 -0.04687,0 -0.07031,0.023437 -0.128906,0.09375 -0.785157,0.99609372 -1.875,0.99609372 -1.992188,0.99609372 -0.621094,0 -0.890625,-0.4921875 -0.890625,-1.08984372 0,-0.4101563 0.199219,-1.3710938 0.539063,-1.9921875 0.304687,-0.5625 0.855468,-0.9960938 1.40625,-0.9960938 0.328125,0 0.714843,0.1289063 0.855468,0.3984375 z m 0,0"
         style="fill:#000000;fill-opacity:1;fill-rule:nonzero;stroke:none" />
    </g>
    <path
       id="path37"
       d="M 14.52771,-223.5485 H 57.04794"
       style="fill:none;stroke:#000000;stroke-width:0.70865;stroke-linecap:butt;stroke-linejoin:miter;stroke-miterlimit:10;stroke-dasharray:none;stroke-opacity:1"
       transform="matrix(1.3333333,0,0,-1.3333333,128.59867,30.66)" />
    <path
       id="path38"
       d="M 0,0 -9.96277,-6.37796"
       style="fill:none;stroke:#000000;stroke-width:0.70865;stroke-linecap:butt;stroke-linejoin:miter;stroke-miterlimit:10;stroke-dasharray:none;stroke-opacity:1"
       transform="matrix(1.3333333,0,0,-1.3333333,204.66259,328.72467)" />
    <g
       id="g38"
       aria-label="C:1/k"
       transform="matrix(1.3333333,0,0,1.3333333,6.868,332.04133)">
      <path
         id="path39"
         d="m 0.56189062,-3.4089297 c 0,2.0625 1.60546878,3.63281251 3.45703128,3.63281251 1.6289062,0 2.6015625,-1.38281251 2.6015625,-2.54296871 0,-0.1054688 0,-0.1757813 -0.1289063,-0.1757813 -0.1054687,0 -0.1054687,0.070312 -0.1171875,0.1640625 -0.082031,1.42968751 -1.1484375,2.23828126 -2.2265625,2.23828126 -0.609375,0 -2.5664062,-0.33984375 -2.5664062,-3.30468746 0,-2.9765625 1.9453125,-3.3164063 2.5546875,-3.3164063 1.078125,0 1.96875,0.9023438 2.1679687,2.3671875 0.023437,0.1289063 0.023437,0.1640625 0.1640625,0.1640625 0.1523438,0 0.1523438,-0.035156 0.1523438,-0.234375 v -2.3671875 c 0,-0.1640625 0,-0.234375 -0.1054688,-0.234375 -0.035156,0 -0.082031,0 -0.1640625,0.1171875 l -0.4921875,0.7382813 c -0.375,-0.3632813 -0.8789062,-0.8554688 -1.8398437,-0.8554688 -1.8632813,0 -3.45703128,1.5820313 -3.45703128,3.609375 z M 9.1048594,-3.7604922 c 0,-0.2929687 -0.234375,-0.5273437 -0.5273438,-0.5273437 -0.28125,0 -0.5273437,0.234375 -0.5273437,0.5273437 0,0.28125 0.2460937,0.5273438 0.5273437,0.5273438 0.2929688,0 0.5273438,-0.2460938 0.5273438,-0.5273438 z m 0,3.23437501 c 0,-0.29296875 -0.234375,-0.52734371 -0.5273438,-0.52734371 -0.28125,0 -0.5273437,0.23437496 -0.5273437,0.52734371 0,0.29296875 0.2460937,0.52734375 0.5273437,0.52734375 0.2929688,0 0.5273438,-0.234375 0.5273438,-0.52734375 z M 16.209352,-6.3737734 c 0,-0.234375 0,-0.2578125 -0.234375,-0.2578125 -0.609375,0.6328125 -1.488282,0.6328125 -1.804688,0.6328125 v 0.3164062 c 0.199219,0 0.785156,0 1.300781,-0.2578125 v 5.15625001 c 0,0.3515625 -0.03516,0.48046875 -0.925781,0.48046875 h -0.316406 v 0.3046875 c 0.351562,-0.03515625 1.207031,-0.03515625 1.605469,-0.03515625 0.398437,0 1.265625,0 1.617187,0.03515625 v -0.3046875 h -0.316406 c -0.902344,0 -0.925781,-0.1171875 -0.925781,-0.48046875 z m 0,0"
         style="fill:#000000;fill-opacity:1;fill-rule:nonzero;stroke:none" />
      <path
         id="path40"
         d="m 22.637086,-7.0886172 c 0.04687,-0.1289062 0.04687,-0.1757812 0.04687,-0.1875 0,-0.1054687 -0.08203,-0.1992187 -0.199219,-0.1992187 -0.07031,0 -0.128906,0.035156 -0.164062,0.09375 l -3.457032,9.4921875 c -0.04687,0.1289062 -0.04687,0.1757812 -0.04687,0.1875 0,0.1054687 0.08203,0.1992187 0.199219,0.1992187 0.128906,0 0.152344,-0.070312 0.210938,-0.2460937 z m 3.46875,0.28125 c 0,0 0,-0.1054687 -0.128906,-0.1054687 -0.234375,0 -0.960938,0.082031 -1.21875,0.1054687 -0.08203,0 -0.1875,0.011719 -0.1875,0.1992188 0,0.1171875 0.09375,0.1171875 0.234375,0.1171875 0.480468,0 0.503906,0.070312 0.503906,0.1640625 l -0.03516,0.1992187 -1.441407,5.74218751 c -0.03516,0.140625 -0.03516,0.15234375 -0.03516,0.22265625 0,0.22265625 0.199219,0.26953125 0.28125,0.26953125 0.128906,0 0.28125,-0.08203125 0.339844,-0.2109375 0.05859,-0.0820313 0.503906,-1.92187501 0.5625,-2.17968751 0.339844,0.035156 1.160156,0.1875 1.160156,0.8554688 0,0.070312 0,0.1054687 -0.03516,0.1992187 -0.02344,0.1289063 -0.03516,0.24609376 -0.03516,0.35156251 0,0.5859375 0.398437,0.984375 0.914062,0.984375 0.292969,0 0.5625,-0.15234375 0.785156,-0.52734375 0.246094,-0.43359375 0.363282,-0.98437496 0.363282,-1.00781246 0,-0.09375 -0.09375,-0.09375 -0.128907,-0.09375 -0.09375,0 -0.105468,0.035156 -0.140625,0.1757812 -0.199218,0.72656251 -0.421875,1.24218751 -0.867187,1.24218751 -0.1875,0 -0.316406,-0.1171875 -0.316406,-0.46875 0,-0.17578125 0.04687,-0.3984375 0.08203,-0.56250001 0.03516,-0.1640625 0.03516,-0.2109375 0.03516,-0.3046875 0,-0.65625 -0.621094,-0.9375 -1.464844,-1.0546875 0.304688,-0.1757812 0.621094,-0.4921875 0.855469,-0.7265625 0.480469,-0.5273437 0.9375,-0.9609375 1.417969,-0.9609375 0.05859,0 0.07031,0 0.09375,0.011719 0.117187,0.023437 0.128906,0.023437 0.210937,0.082031 0.02344,0 0.02344,0.011719 0.03516,0.035156 -0.480469,0.035156 -0.5625,0.421875 -0.5625,0.5390625 0,0.1640625 0.105468,0.3515625 0.375,0.3515625 0.257812,0 0.550781,-0.2226563 0.550781,-0.609375 0,-0.3046875 -0.234375,-0.6328125 -0.679688,-0.6328125 -0.28125,0 -0.738281,0.082031 -1.453125,0.8789062 -0.339843,0.375 -0.726562,0.7734375 -1.101562,0.9257813 z m 0,0"
         style="fill:#000000;fill-opacity:1;fill-rule:nonzero;stroke:none" />
    </g>
    <path
       id="path41"
       d="M -14.52771,-223.5485 H -57.04794"
       style="fill:none;stroke:#000000;stroke-width:0.70865;stroke-linecap:butt;stroke-linejoin:miter;stroke-miterlimit:10;stroke-dasharray:none;stroke-opacity:1"
       transform="matrix(1.3333333,0,0,-1.3333333,128.59867,30.66)" />
    <path
       id="path42"
       d="M 0,0 -9.96277,-6.37796"
       style="fill:none;stroke:#000000;stroke-width:0.70865;stroke-linecap:butt;stroke-linejoin:miter;stroke-miterlimit:10;stroke-dasharray:none;stroke-opacity:1"
       transform="matrix(-1.3333333,0,0,1.3333333,52.534747,328.72467)" />
  </g>
</svg>
