<?xml version="1.0" encoding="UTF-8" standalone="no"?>
<!-- Created with Inkscape (http://www.inkscape.org/) -->

<svg
   version="1.1"
   id="svg1"
   width="471.42801"
   height="241.556"
   viewBox="0 0 471.42801 241.556"
   sodipodi:docname="bg_dcmotor.pdf"
   xmlns:inkscape="http://www.inkscape.org/namespaces/inkscape"
   xmlns:sodipodi="http://sodipodi.sourceforge.net/DTD/sodipodi-0.dtd"
   xmlns="http://www.w3.org/2000/svg"
   xmlns:svg="http://www.w3.org/2000/svg">
  <defs
     id="defs1" />
  <sodipodi:namedview
     id="namedview1"
     pagecolor="#ffffff"
     bordercolor="#666666"
     borderopacity="1.0"
     inkscape:showpageshadow="2"
     inkscape:pageopacity="0.0"
     inkscape:pagecheckerboard="0"
     inkscape:deskcolor="#d1d1d1">
    <inkscape:page
       x="0"
       y="0"
       inkscape:label="1"
       id="page1"
       width="471.42801"
       height="241.556"
       margin="0"
       bleed="0" />
  </sodipodi:namedview>
  <g
     id="g1"
     inkscape:groupmode="layer"
     inkscape:label="1">
    <g
       id="g2"
       aria-label="Se:V(t)"
       transform="matrix(1.3333333,0,0,1.3333333,6.4746667,126.79733)">
      <path
         id="path2"
         d="M 3.4818906,-3.8675312 2.2045469,-4.1722187 C 1.5834531,-4.3245625 1.1967344,-4.863625 1.1967344,-5.4378437 c 0,-0.703125 0.5390625,-1.3007813 1.3125,-1.3007813 1.6640625,0 1.8867187,1.6289063 1.9453125,2.0742188 0.011719,0.058594 0.011719,0.1171875 0.1171875,0.1171875 0.1289062,0 0.1289062,-0.046875 0.1289062,-0.234375 V -6.7855 c 0,-0.1640625 0,-0.234375 -0.1054687,-0.234375 -0.070312,0 -0.082031,0.011719 -0.1523438,0.1289063 l -0.3515625,0.5625 c -0.2929687,-0.28125 -0.703125,-0.6914063 -1.59375,-0.6914063 -1.1015625,0 -1.93359373,0.8789063 -1.93359373,1.9335938 0,0.8203125 0.52734373,1.546875 1.30078123,1.8164062 0.1054688,0.046875 0.6210938,0.1640625 1.3125,0.328125 0.2695313,0.070312 0.5742188,0.140625 0.84375,0.515625 0.2109375,0.2578125 0.3164063,0.5859375 0.3164063,0.9140625 0,0.703125 -0.5039063,1.41796875 -1.3359375,1.41796875 -0.2929688,0 -1.0429688,-0.046875 -1.5703125,-0.5390625 C 0.84517187,-1.1605 0.82173437,-1.8050312 0.81001562,-2.1565937 c -0.0117188,-0.1054688 -0.09375,-0.1054688 -0.1171875,-0.1054688 -0.12890625,0 -0.12890625,0.070312 -0.12890625,0.2460938 v 1.99218745 c 0,0.17578125 0,0.24609375 0.10546875,0.24609375 0.0703125,0 0.0820313,-0.0234375 0.15234375,-0.12890625 0,-0.01171875 0.0234375,-0.046875 0.35156253,-0.57421875 0.3164062,0.33984375 0.9492187,0.703125 1.8398437,0.703125 1.1601563,0 1.9570313,-0.984375 1.9570313,-2.0742187 0,-0.9960938 -0.65625,-1.8164063 -1.4882813,-2.015625 z m 3.1669922,1.359375 c 0.058594,-1.4882813 0.9023438,-1.734375 1.2421875,-1.734375 1.0195313,0 1.125,1.3476562 1.125,1.734375 z m -0.011719,0.2109375 h 2.7890625 c 0.2109375,0 0.2460937,0 0.2460937,-0.2109375 0,-0.984375 -0.5390625,-1.9570313 -1.78125,-1.9570313 -1.1601562,0 -2.0742187,1.03125 -2.0742187,2.2734375 0,1.3359375 1.0429687,2.296875 2.1914062,2.296875 1.21875,0 1.6640625,-1.1015625 1.6640625,-1.2890625 0,-0.1054687 -0.082031,-0.1171875 -0.1289062,-0.1171875 -0.09375,0 -0.1171875,0.058594 -0.1289063,0.140625 -0.3515625,1.01953125 -1.2539062,1.01953125 -1.3476562,1.01953125 -0.5039063,0 -0.9023438,-0.29296875 -1.125,-0.66796875 C 6.6371641,-1.2894062 6.6371641,-1.9456562 6.6371638,-2.2972187 Z m 5.2353522,-1.4648438 c 0,-0.2929687 -0.234375,-0.5273437 -0.527344,-0.5273437 -0.28125,0 -0.527344,0.234375 -0.527344,0.5273437 0,0.28125 0.246094,0.5273438 0.527344,0.5273438 0.292969,0 0.527344,-0.2460938 0.527344,-0.5273438 z m 0,3.234375 c 0,-0.29296875 -0.234375,-0.5273437 -0.527344,-0.5273437 -0.28125,0 -0.527344,0.23437495 -0.527344,0.5273437 0,0.29296875 0.246094,0.52734375 0.527344,0.52734375 0.292969,0 0.527344,-0.234375 0.527344,-0.52734375 z m 0,0"
         style="fill:#000000;fill-opacity:1;fill-rule:nonzero;stroke:none" />
      <path
         id="path3"
         d="m 23.415484,-5.6722187 c 0.480469,-0.7734375 0.902344,-0.8085938 1.277344,-0.8203125 0.117188,-0.011719 0.128906,-0.1875 0.128906,-0.1875 0,-0.082031 -0.05859,-0.1289063 -0.128906,-0.1289063 -0.257812,0 -0.550781,0.035156 -0.820312,0.035156 -0.328125,0 -0.667969,-0.035156 -0.984375,-0.035156 -0.05859,0 -0.1875,0 -0.1875,0.1992188 0,0.1054687 0.08203,0.1171875 0.152343,0.1171875 0.269532,0.011719 0.457032,0.1171875 0.457032,0.328125 0,0.1523437 -0.140625,0.3632812 -0.140625,0.375 l -3.058594,4.8632812 -0.679688,-5.2734375 c 0,-0.1640625 0.222657,-0.2929687 0.679688,-0.2929687 0.140625,0 0.257812,0 0.257812,-0.1992188 0,-0.09375 -0.08203,-0.1171875 -0.140625,-0.1171875 -0.398437,0 -0.832031,0.035156 -1.242187,0.035156 -0.175781,0 -0.363281,-0.011719 -0.539063,-0.011719 -0.1875,0 -0.375,-0.023437 -0.539062,-0.023437 -0.07031,0 -0.1875,0 -0.1875,0.1992188 0,0.1171875 0.08203,0.1171875 0.246094,0.1171875 0.550781,0 0.5625,0.082031 0.597656,0.3398437 l 0.785156,6.140625 c 0.03516,0.19921875 0.07031,0.234375 0.199219,0.234375 0.164062,0 0.199219,-0.0585938 0.28125,-0.1875 z m 0,0"
         style="fill:#000000;fill-opacity:1;fill-rule:nonzero;stroke:none" />
      <path
         id="path4"
         d="m 28.475055,2.3902813 c 0,-0.035156 0,-0.046875 -0.164063,-0.2226563 -1.242187,-1.25390625 -1.570312,-3.12890625 -1.570312,-4.6640625 0,-1.7226562 0.386718,-3.4570312 1.605468,-4.7109375 0.128907,-0.1171875 0.128907,-0.1289062 0.128907,-0.1640625 0,-0.070312 -0.03516,-0.1054687 -0.09375,-0.1054687 -0.105469,0 -0.996094,0.6796875 -1.582032,1.9453125 -0.515625,1.1015625 -0.632812,2.203125 -0.632812,3.0351562 0,0.7851563 0.117187,1.9921875 0.65625,3.1171875 0.597656,1.21875 1.453125,1.875 1.558594,1.875 0.05859,0 0.09375,-0.035156 0.09375,-0.1054687 z m 0,0"
         style="fill:#000000;fill-opacity:1;fill-rule:nonzero;stroke:none" />
      <path
         id="path5"
         d="m 31.108844,-3.9847187 h 0.9375 c 0.199218,0 0.304687,0 0.304687,-0.1992188 0,-0.1054687 -0.105469,-0.1054687 -0.28125,-0.1054687 h -0.878906 c 0.363281,-1.4179688 0.410156,-1.6171875 0.410156,-1.6757813 0,-0.1757812 -0.117187,-0.2695312 -0.292969,-0.2695312 -0.02344,0 -0.304687,0.011719 -0.398437,0.3515625 l -0.386719,1.59375 h -0.9375 c -0.199219,0 -0.292969,0 -0.292969,0.1875 0,0.1171875 0.07031,0.1171875 0.269532,0.1171875 h 0.878906 c -0.714844,2.8242187 -0.75,2.99999995 -0.75,3.1757812 0,0.5390625 0.375,0.9140625 0.914062,0.9140625 1.007813,0 1.582032,-1.453125 1.582032,-1.5351562 0,-0.09375 -0.08203,-0.09375 -0.117188,-0.09375 -0.09375,0 -0.105469,0.023437 -0.152344,0.140625 -0.433593,1.03124995 -0.960937,1.2773437 -1.300781,1.2773437 -0.199219,0 -0.304687,-0.12890625 -0.304687,-0.45703125 0,-0.24609375 0.02344,-0.31640625 0.05859,-0.48046875 z m 0,0"
         style="fill:#000000;fill-opacity:1;fill-rule:nonzero;stroke:none" />
      <path
         id="path6"
         d="m 35.538531,-2.4964375 c 0,-0.7734375 -0.117187,-1.9804687 -0.65625,-3.1054687 -0.597656,-1.21875 -1.464844,-1.875 -1.558594,-1.875 -0.05859,0 -0.105468,0.046875 -0.105468,0.1054687 0,0.035156 0,0.046875 0.199218,0.234375 0.972657,0.984375 1.535157,2.5664063 1.535157,4.640625 0,1.7109375 -0.363282,3.45703125 -1.59375,4.7226563 -0.140625,0.1171875 -0.140625,0.1289062 -0.140625,0.1640625 0,0.058594 0.04687,0.1054687 0.105468,0.1054687 0.09375,0 0.996094,-0.6796875 1.582032,-1.9453125 0.503906,-1.1015625 0.632812,-2.203125 0.632812,-3.046875 z m 0,0"
         style="fill:#000000;fill-opacity:1;fill-rule:nonzero;stroke:none" />
    </g>
    <path
       id="path7"
       d="m 2.9310078,-6.3746406 c 0,-0.234375 0,-0.2578125 -0.234375,-0.2578125 -0.609375,0.6328125 -1.4882812,0.6328125 -1.80468749,0.6328125 v 0.3164062 c 0.19921879,0 0.78515629,0 1.30078129,-0.2578125 v 5.15625003 c 0,0.3515625 -0.035156,0.48046875 -0.9257813,0.48046875 H 0.95053906 V 3.59375e-4 C 1.3021016,-0.03479687 2.1575703,-0.03479687 2.5560078,-0.03479687 c 0.3984375,0 1.265625,0 1.6171875,0.035156245 V -0.30432812 H 3.8567891 c -0.9023438,0 -0.9257813,-0.1171875 -0.9257813,-0.48046875 z m 0,0"
       style="fill:#000000;fill-opacity:1;fill-rule:nonzero;stroke:none"
       aria-label="1"
       transform="matrix(1.3333333,0,0,1.3333333,134.86933,127.75733)" />
    <path
       id="path8"
       d="M 23.47519,0 H 65.9954"
       style="fill:none;stroke:#000000;stroke-width:0.70865;stroke-linecap:butt;stroke-linejoin:miter;stroke-miterlimit:10;stroke-dasharray:none;stroke-opacity:1"
       transform="matrix(1.3333333,0,0,-1.3333333,30.828,123.476)" />
    <path
       id="path9"
       d="M 0,0 -9.96277,-6.37796"
       style="fill:none;stroke:#000000;stroke-width:0.70865;stroke-linecap:butt;stroke-linejoin:miter;stroke-miterlimit:10;stroke-dasharray:none;stroke-opacity:1"
       transform="matrix(1.3333333,0,0,-1.3333333,118.82187,123.476)" />
    <g
       id="g9"
       aria-label="I:L&#10;e"
       transform="matrix(1.3333333,0,0,1.3333333,124.36133,224.32667)">
      <path
         id="path10"
         d="m 2.2397422,-6.0223438 c 0,-0.3632812 0.035156,-0.46875 0.8203125,-0.46875 H 3.3178672 V -6.8075 c -0.3515625,0.035156 -1.1367188,0.035156 -1.5117188,0.035156 -0.3867187,0 -1.17187496,0 -1.52343746,-0.035156 v 0.3164062 h 0.2578125 c 0.78515626,0 0.82031246,0.1054688 0.82031246,0.46875 v 5.25000005 c 0,0.3515625 -0.035156,0.46875 -0.82031246,0.46875 h -0.2578125 v 0.3046875 C 0.63427344,-0.0340625 1.4194297,-0.0340625 1.7944297,-0.0340625 c 0.3867187,0 1.171875,0 1.5234375,0.03515625 v -0.3046875 H 3.0600547 c -0.7851563,0 -0.8203125,-0.1171875 -0.8203125,-0.46875 z m 3.2666016,2.2617188 c 0,-0.2929688 -0.234375,-0.5273438 -0.5273438,-0.5273438 -0.28125,0 -0.5273437,0.234375 -0.5273437,0.5273438 0,0.28125 0.2460937,0.5273437 0.5273437,0.5273437 0.2929688,0 0.5273438,-0.2460937 0.5273438,-0.5273437 z m 0,3.234375 c 0,-0.29296875 -0.234375,-0.5273438 -0.5273438,-0.5273438 -0.28125,0 -0.5273437,0.23437505 -0.5273437,0.5273438 0,0.29296875 0.2460937,0.52734375 0.5273437,0.52734375 0.2929688,0 0.5273438,-0.234375 0.5273438,-0.52734375 z m 0,0"
         style="fill:#000000;fill-opacity:1;fill-rule:nonzero;stroke:none" />
      <path
         id="path11"
         d="m 13.41357,-6.0223438 c 0.09375,-0.3632812 0.117188,-0.46875 1.054688,-0.46875 0.304687,0 0.375,0 0.375,-0.1875 0,-0.1289062 -0.105469,-0.1289062 -0.152344,-0.1289062 -0.328125,0 -1.148437,0.035156 -1.476562,0.035156 -0.304688,0 -1.03125,-0.035156 -1.324219,-0.035156 -0.07031,0 -0.1875,0 -0.1875,0.1992187 0,0.1171875 0.08203,0.1171875 0.28125,0.1171875 0.01172,0 0.199219,0 0.375,0.011719 0.175781,0.023437 0.269531,0.035156 0.269531,0.1640625 0,0.035156 -0.01172,0.070312 -0.04687,0.1875 l -1.335937,5.35546875 c -0.09375,0.38671875 -0.117188,0.46875 -0.902344,0.46875 -0.164063,0 -0.269531,0 -0.269531,0.19921875 0,0.10546875 0.09375,0.10546875 0.269531,0.10546875 h 4.617187 c 0.234375,0 0.246094,0 0.304688,-0.1640625 l 0.785156,-2.15625005 c 0.04687,-0.1054687 0.04687,-0.1289062 0.04687,-0.140625 0,-0.035156 -0.03516,-0.1054687 -0.128906,-0.1054687 -0.08203,0 -0.09375,0.046875 -0.164063,0.2109375 -0.339843,0.9140625 -0.773437,2.05078125 -2.496093,2.05078125 h -0.9375 c -0.140625,0 -0.164063,0 -0.222657,-0.0117188 -0.105468,-0.0117188 -0.128906,-0.0234375 -0.128906,-0.10546875 0,-0.0234375 0,-0.046875 0.04687,-0.22265625 z m 0,0"
         style="fill:#000000;fill-opacity:1;fill-rule:nonzero;stroke:none" />
      <path
         id="path12"
         d="m 18.024898,-0.09851563 c 0.199219,0 0.75,-0.01171875 1.125,-0.140625 0.515625,-0.1875 0.609375,-0.515625 0.609375,-0.7265625 0,-0.38671877 -0.375,-0.60937497 -0.855468,-0.60937497 -0.84375,0 -1.96875,0.63281247 -1.96875,1.82812497 0,0.703125 0.433593,1.31250003 1.253906,1.31250003 1.183594,0 1.734375,-0.69140628 1.734375,-0.78515628 0,-0.046875 -0.07031,-0.1171875 -0.128906,-0.1171875 -0.03516,0 -0.04687,0.0117188 -0.105469,0.0703125 C 19.13818,1.3663281 18.329586,1.3663281 18.20068,1.3663281 c -0.421875,0 -0.691407,-0.28125 -0.691407,-0.84374998 0,-0.09375 0,-0.234375 0.08203,-0.62109375 z m -0.375,-0.1875 c 0.28125,-1.01953127 1.054688,-1.10156247 1.253907,-1.10156247 0.304687,0 0.5625,0.1523437 0.5625,0.42187497 0,0.6796875 -1.183594,0.6796875 -1.476563,0.6796875 z m 0,0"
         style="fill:#000000;fill-opacity:1;fill-rule:nonzero;stroke:none" />
    </g>
    <path
       id="path13"
       d="M 80.52313,-14.52771 V -57.04794"
       style="fill:none;stroke:#000000;stroke-width:0.70865;stroke-linecap:butt;stroke-linejoin:miter;stroke-miterlimit:10;stroke-dasharray:none;stroke-opacity:1"
       transform="matrix(1.3333333,0,0,-1.3333333,30.828,123.476)" />
    <path
       id="path14"
       d="M 0,0 -9.96277,-6.37796"
       style="fill:none;stroke:#000000;stroke-width:0.70865;stroke-linecap:butt;stroke-linejoin:miter;stroke-miterlimit:10;stroke-dasharray:none;stroke-opacity:1"
       transform="matrix(0,1.3333333,1.3333333,0,138.19217,199.53992)" />
    <g
       id="g14"
       aria-label="R:R&#10;e"
       transform="matrix(1.3333333,0,0,1.3333333,121.34667,27.013333)">
      <path
         id="path15"
         d="m 2.2273047,-3.5168359 v -2.578125 c 0,-0.234375 0,-0.3515625 0.2226562,-0.3867188 0.1054688,-0.011719 0.3867188,-0.011719 0.5859375,-0.011719 0.9023438,0 2.015625,0.035156 2.015625,1.4765625 0,0.6914062 -0.234375,1.5 -1.7109375,1.5 z m 2.109375,0.1289062 c 0.9609375,-0.234375 1.7460937,-0.84375 1.7460937,-1.6289062 0,-0.9492188 -1.1367187,-1.7929688 -2.6015625,-1.7929688 H 0.35230469 v 0.3164063 h 0.234375 c 0.77343751,0 0.78515621,0.1054687 0.78515621,0.46875 v 5.24999996 c 0,0.3515625 -0.011719,0.46875 -0.78515621,0.46875 h -0.234375 v 0.3046875 c 0.3515625,-0.03515625 1.06640621,-0.03515625 1.45312501,-0.03515625 0.3867187,0 1.0898437,0 1.453125,0.03515625 v -0.3046875 h -0.234375 c -0.7734375,0 -0.796875,-0.1171875 -0.796875,-0.46875 V -3.2941797 h 1.1484375 c 0.1640625,0 0.5742187,0 0.9257812,0.3398438 0.3867188,0.3515625 0.3867188,0.65625 0.3867188,1.3242187 0,0.65625001 0,1.05468751 0.3984375,1.42968751 0.4101562,0.36328125 0.9609375,0.421875 1.2539062,0.421875 0.7851563,0 0.9492188,-0.8203125 0.9492188,-1.1015625 0,-0.0585938 0,-0.16406251 -0.1289063,-0.16406251 -0.1054687,0 -0.1054687,0.0820313 -0.1171875,0.15234376 -0.058594,0.71484375 -0.4101562,0.890625 -0.65625,0.890625 -0.4921875,0 -0.5742187,-0.50390625 -0.703125,-1.42968746 l -0.140625,-0.796875 C 5.3679297,-2.8723047 4.8874609,-3.2004297 4.3366797,-3.3879297 Z m 4.9072266,-0.375 c 0,-0.2929687 -0.234375,-0.5273437 -0.5273438,-0.5273437 -0.28125,0 -0.5273437,0.234375 -0.5273437,0.5273437 0,0.28125 0.2460937,0.5273438 0.5273437,0.5273438 0.2929688,0 0.5273438,-0.2460938 0.5273438,-0.5273438 z m 0,3.23437501 c 0,-0.29296875 -0.234375,-0.52734371 -0.5273438,-0.52734371 -0.28125,0 -0.5273437,0.23437496 -0.5273437,0.52734371 0,0.29296875 0.2460937,0.52734375 0.5273437,0.52734375 0.2929688,0 0.5273438,-0.234375 0.5273438,-0.52734375 z m 0,0"
         style="fill:#000000;fill-opacity:1;fill-rule:nonzero;stroke:none" />
      <path
         id="path16"
         d="m 17.159922,-6.1183984 c 0.05859,-0.234375 0.08203,-0.3398438 0.28125,-0.3632813 0.08203,-0.011719 0.398437,-0.011719 0.597656,-0.011719 0.714844,0 1.816406,0 1.816406,0.984375 0,0.3398437 -0.152343,1.0195312 -0.550781,1.4179687 -0.257812,0.2578125 -0.785156,0.5742188 -1.675781,0.5742188 h -1.113281 z m 1.429687,2.7304687 c 1.007813,-0.2226562 2.191407,-0.9140625 2.191407,-1.921875 0,-0.8554687 -0.890625,-1.5 -2.203125,-1.5 h -2.835938 c -0.199219,0 -0.292969,0 -0.292969,0.1992188 0,0.1171875 0.09375,0.1171875 0.28125,0.1171875 0.02344,0 0.210938,0 0.386719,0.011719 0.175781,0.023437 0.257813,0.035156 0.257813,0.1640625 0,0.035156 0,0.070312 -0.03516,0.1875 l -1.335937,5.35546876 c -0.09375,0.38671875 -0.117188,0.46875 -0.902344,0.46875 -0.175781,0 -0.269531,0 -0.269531,0.19921875 0,0.10546875 0.117187,0.10546875 0.140625,0.10546875 0.28125,0 0.972656,-0.03515625 1.253906,-0.03515625 0.28125,0 0.984375,0.03515625 1.265625,0.03515625 0.08203,0 0.199219,0 0.199219,-0.19921875 0,-0.10546875 -0.09375,-0.10546875 -0.28125,-0.10546875 -0.363281,0 -0.644531,0 -0.644531,-0.1875 0,-0.0585938 0.01172,-0.10546875 0.02344,-0.1640625 l 0.65625,-2.63671876 h 1.195313 c 0.902343,0 1.078125,0.5507813 1.078125,0.9023438 0,0.1523437 -0.08203,0.4570312 -0.140625,0.6914062 -0.07031,0.2695313 -0.152344,0.6445313 -0.152344,0.84375001 0,1.078125 1.195312,1.078125 1.324219,1.078125 0.84375,0 1.195312,-1.0078125 1.195312,-1.1484375 0,-0.11718751 -0.117187,-0.11718751 -0.117187,-0.11718751 -0.09375,0 -0.117188,0.0703125 -0.128907,0.14062501 -0.257812,0.73828125 -0.679687,0.90234375 -0.914062,0.90234375 -0.328125,0 -0.398438,-0.22265625 -0.398438,-0.609375 0,-0.3046875 0.05859,-0.82031246 0.105469,-1.13671876 0.01172,-0.140625 0.03516,-0.328125 0.03516,-0.46875 0,-0.7617187 -0.667968,-1.078125 -0.9375,-1.171875 z m 0,0"
         style="fill:#000000;fill-opacity:1;fill-rule:nonzero;stroke:none" />
      <path
         id="path17"
         d="m 22.544688,-0.10082031 c 0.199218,0 0.75,-0.0117188 1.125,-0.140625 0.515625,-0.1875 0.609375,-0.515625 0.609375,-0.7265625 0,-0.38671879 -0.375,-0.60937499 -0.855469,-0.60937499 -0.84375,0 -1.96875,0.63281249 -1.96875,1.82812499 0,0.703125 0.433594,1.31250001 1.253906,1.31250001 1.183594,0 1.734375,-0.69140626 1.734375,-0.78515626 0,-0.046875 -0.07031,-0.1171875 -0.128906,-0.1171875 -0.03516,0 -0.04687,0.0117188 -0.105469,0.0703125 -0.550781,0.63281246 -1.359375,0.63281246 -1.488281,0.63281246 -0.421875,0 -0.691406,-0.28125 -0.691406,-0.84374996 0,-0.09375 0,-0.234375 0.08203,-0.62109375 z m -0.375,-0.1875 c 0.28125,-1.01953129 1.054687,-1.10156249 1.253906,-1.10156249 0.304687,0 0.5625,0.1523437 0.5625,0.42187499 0,0.6796875 -1.183594,0.6796875 -1.476563,0.6796875 z m 0,0"
         style="fill:#000000;fill-opacity:1;fill-rule:nonzero;stroke:none" />
    </g>
    <path
       id="path18"
       d="M 80.52313,14.52771 V 57.04794"
       style="fill:none;stroke:#000000;stroke-width:0.70865;stroke-linecap:butt;stroke-linejoin:miter;stroke-miterlimit:10;stroke-dasharray:none;stroke-opacity:1"
       transform="matrix(1.3333333,0,0,-1.3333333,30.828,123.476)" />
    <path
       id="path19"
       d="M 0,0 -9.96277,-6.37796"
       style="fill:none;stroke:#000000;stroke-width:0.70865;stroke-linecap:butt;stroke-linejoin:miter;stroke-miterlimit:10;stroke-dasharray:none;stroke-opacity:1"
       transform="matrix(0,-1.3333333,-1.3333333,0,138.19217,47.41208)" />
    <path
       id="path20"
       d="M 2.4032734,-6.5852187 C 2.3095234,-6.807875 2.2860859,-6.807875 2.0517109,-6.807875 H 0.36421094 v 0.3164063 h 0.24609375 c 0.76171871,0 0.78515621,0.1054687 0.78515621,0.46875 V -1.04225 c 0,0.26953125 0,0.73828125 -1.03124996,0.73828125 V 7.1875e-4 C 0.71577344,-0.011 1.2079609,-0.0344375 1.5360859,-0.0344375 c 0.328125,0 0.8203125,0.0234375 1.1601563,0.03515625 v -0.3046875 c -1.0195313,0 -1.0195313,-0.46875 -1.0195313,-0.73828125 v -5.3671875 h 0.011719 l 2.4023437,6.1875 c 0.046875,0.12890625 0.09375,0.22265625 0.1992188,0.22265625 0.1054687,0 0.1289062,-0.08203125 0.1757812,-0.1875 L 6.9149922,-6.4914687 h 0.011719 v 5.71874995 c 0,0.3515625 -0.023437,0.46875 -0.7851562,0.46875 H 5.8954609 v 0.3046875 c 0.375,-0.03515625 1.0429688,-0.03515625 1.4414063,-0.03515625 0.3867187,0 1.0546875,0 1.4179687,0.03515625 v -0.3046875 h -0.234375 c -0.7734375,0 -0.7851562,-0.1171875 -0.7851562,-0.46875 V -6.0227187 c 0,-0.3632813 0.011719,-0.46875 0.7851562,-0.46875 h 0.234375 V -6.807875 H 7.0790547 c -0.2695313,0 -0.2695313,0.011719 -0.3398438,0.1992188 L 4.5595234,-1.0070937 Z M 15.039016,-0.63209375 C 15.167922,-0.4094375 15.566359,-0.011 15.671828,-0.011 c 0.09375,0 0.09375,-0.08203125 0.09375,-0.22265625 V -1.9680312 c 0,-0.3867188 0.04687,-0.4453125 0.691406,-0.4453125 v -0.3046875 c -0.375,0.011719 -0.914062,0.023437 -1.21875,0.023437 -0.398437,0 -1.242187,0 -1.605468,-0.023437 v 0.3046875 h 0.316406 c 0.902344,0 0.925781,0.1171875 0.925781,0.4804687 v 0.6328125 c 0,1.125 -1.253906,1.20703125 -1.535156,1.20703125 -0.65625,0 -2.625,-0.33984375 -2.625,-3.31640625 0,-2.9765625 1.96875,-3.3046875 2.566406,-3.3046875 1.066406,0 1.96875,0.9023438 2.167969,2.3671875 0.02344,0.1289063 0.02344,0.1640625 0.164062,0.1640625 0.152344,0 0.152344,-0.035156 0.152344,-0.234375 v -2.3671875 c 0,-0.1640625 0,-0.234375 -0.105469,-0.234375 -0.04687,0 -0.08203,0 -0.164062,0.1171875 l -0.492188,0.7382813 c -0.328125,-0.3164063 -0.855468,-0.8554688 -1.851562,-0.8554688 -1.851563,0 -3.4570314,1.5703125 -3.4570314,3.609375 0,2.0507813 1.5937504,3.6328125 3.4804684,3.6328125 0.726563,0 1.523438,-0.2578125 1.863282,-0.85546875 z m 7.992187,-5.21484375 c 0.363281,-0.609375 0.949219,-0.6445312 1.265625,-0.6445312 V -6.807875 c -0.304687,0.023437 -0.703125,0.035156 -0.972656,0.035156 -0.304688,0 -0.890625,-0.023437 -1.148438,-0.035156 v 0.3164063 c 0.410157,0 0.574219,0.1875 0.574219,0.3867187 0,0.1054688 -0.05859,0.234375 -0.105469,0.2929688 l -1.640625,2.671875 -1.804687,-2.9414063 c -0.07031,-0.09375 -0.07031,-0.1171875 -0.07031,-0.1640625 0,-0.2109375 0.246094,-0.2460937 0.703125,-0.2460937 V -6.807875 c -0.363281,0.035156 -1.089843,0.035156 -1.476562,0.035156 -0.421875,0 -0.878906,-0.011719 -1.300781,-0.035156 v 0.3164063 h 0.1875 c 0.667968,0 0.75,0.1054687 0.914062,0.3632812 l 2.085938,3.4101563 v 1.94531245 c 0,0.3515625 -0.01172,0.46875 -0.785157,0.46875 h -0.234375 v 0.3046875 c 0.351563,-0.03515625 1.066407,-0.03515625 1.453125,-0.03515625 0.386719,0 1.089844,0 1.453125,0.03515625 v -0.3046875 h -0.234375 c -0.761718,0 -0.796875,-0.10546875 -0.796875,-0.4921875 V -2.7180312 Z m 0,0"
       style="fill:#000000;fill-opacity:1;fill-rule:nonzero;stroke:none"
       aria-label="MGY"
       transform="matrix(1.3333333,0,0,1.3333333,221.00267,128.01467)" />
    <path
       id="path21"
       d="m 95.05086,0 h 42.52023"
       style="fill:none;stroke:#000000;stroke-width:0.70865;stroke-linecap:butt;stroke-linejoin:miter;stroke-miterlimit:10;stroke-dasharray:none;stroke-opacity:1"
       transform="matrix(1.3333333,0,0,-1.3333333,30.828,123.476)" />
    <path
       id="path22"
       d="M 0,0 -9.96277,-6.37796"
       style="fill:none;stroke:#000000;stroke-width:0.70865;stroke-linecap:butt;stroke-linejoin:miter;stroke-miterlimit:10;stroke-dasharray:none;stroke-opacity:1"
       transform="matrix(1.3333333,0,0,-1.3333333,214.25612,123.476)" />
    <path
       id="path23"
       d="m 2.9296328,-6.3746406 c 0,-0.234375 0,-0.2578125 -0.234375,-0.2578125 -0.609375,0.6328125 -1.4882812,0.6328125 -1.80468749,0.6328125 v 0.3164062 c 0.19921879,0 0.78515629,0 1.30078129,-0.2578125 v 5.15625003 c 0,0.3515625 -0.035156,0.48046875 -0.9257813,0.48046875 H 0.94916406 V 3.59375e-4 C 1.3007266,-0.03479687 2.1561953,-0.03479687 2.5546328,-0.03479687 c 0.3984375,0 1.265625,0 1.6171875,0.035156245 V -0.30432812 H 3.8554141 c -0.9023438,0 -0.9257813,-0.1171875 -0.9257813,-0.48046875 z m 0,0"
       style="fill:#000000;fill-opacity:1;fill-rule:nonzero;stroke:none"
       aria-label="1"
       transform="matrix(1.3333333,0,0,1.3333333,333.05867,127.75733)" />
    <path
       id="path24"
       d="m 172.1191,0 h 42.52023"
       style="fill:none;stroke:#000000;stroke-width:0.70865;stroke-linecap:butt;stroke-linejoin:miter;stroke-miterlimit:10;stroke-dasharray:none;stroke-opacity:1"
       transform="matrix(1.3333333,0,0,-1.3333333,30.828,123.476)" />
    <path
       id="path25"
       d="M 0,0 -9.96277,-6.37796"
       style="fill:none;stroke:#000000;stroke-width:0.70865;stroke-linecap:butt;stroke-linejoin:miter;stroke-miterlimit:10;stroke-dasharray:none;stroke-opacity:1"
       transform="matrix(1.3333333,0,0,-1.3333333,317.01377,123.476)" />
    <g
       id="g25"
       aria-label="I:J&#10;θ"
       transform="matrix(1.3333333,0,0,1.3333333,323.23467,223.72667)">
      <path
         id="path26"
         d="m 2.2380625,-6.0235156 c 0,-0.3632813 0.035156,-0.46875 0.8203125,-0.46875 h 0.2578125 v -0.3164063 c -0.3515625,0.035156 -1.1367187,0.035156 -1.5117187,0.035156 -0.3867188,0 -1.17187505,0 -1.52343755,-0.035156 v 0.3164063 h 0.2578125 c 0.78515625,0 0.82031255,0.1054687 0.82031255,0.46875 v 5.24999998 c 0,0.3515625 -0.035156,0.46875 -0.82031255,0.46875 H 0.28103125 V -7.8125e-5 C 0.63259375,-0.03523437 1.41775,-0.03523437 1.79275,-0.03523437 c 0.3867188,0 1.171875,0 1.5234375,0.035156245 V -0.30476562 H 3.058375 c -0.7851562,0 -0.8203125,-0.1171875 -0.8203125,-0.46875 z m 3.2695313,2.2617187 c 0,-0.2929687 -0.234375,-0.5273437 -0.5273438,-0.5273437 -0.28125,0 -0.5273437,0.234375 -0.5273437,0.5273437 0,0.28125 0.2460937,0.5273438 0.5273437,0.5273438 0.2929688,0 0.5273438,-0.2460938 0.5273438,-0.5273438 z m 0,3.23437503 c 0,-0.29296875 -0.234375,-0.52734373 -0.5273438,-0.52734373 -0.28125,0 -0.5273437,0.23437498 -0.5273437,0.52734373 0,0.29296875 0.2460937,0.527343745 0.5273437,0.527343745 0.2929688,0 0.5273438,-0.234374995 0.5273438,-0.527343745 z m 0,0"
         style="fill:#000000;fill-opacity:1;fill-rule:nonzero;stroke:none" />
      <path
         id="path27"
         d="m 15.075953,-6.0821094 c 0.08203,-0.328125 0.09375,-0.4101562 0.644531,-0.4101562 0.164063,0 0.269532,0 0.269532,-0.1875 0,-0.09375 -0.05859,-0.1289063 -0.140625,-0.1289063 -0.246094,0 -0.855469,0.035156 -1.101563,0.035156 -0.328125,0 -1.136719,-0.035156 -1.464844,-0.035156 -0.09375,0 -0.210937,0 -0.210937,0.1992188 0,0.1171875 0.08203,0.1171875 0.339844,0.1171875 0.222656,0 0.328125,0 0.574218,0.011719 0.246094,0.035156 0.316407,0.070312 0.316407,0.1992188 0,0.070312 -0.02344,0.140625 -0.04687,0.2109375 l -1.148438,4.5703125 c -0.234375,0.97265623 -0.914062,1.499999975 -1.429687,1.499999975 -0.257813,0 -0.785157,-0.105468745 -0.949219,-0.621093745 0.03516,0.0117188 0.105469,0.0117188 0.117187,0.0117188 0.398438,0 0.65625,-0.33984375 0.65625,-0.63281253 0,-0.3164063 -0.269531,-0.421875 -0.445312,-0.421875 -0.175781,0 -0.667969,0.1171875 -0.667969,0.79687503 0,0.62109375 0.527344,1.08984375 1.324219,1.08984375 0.914062,0 1.945312,-0.65625 2.191406,-1.65234378 z m 0,0"
         style="fill:#000000;fill-opacity:1;fill-rule:nonzero;stroke:none" />
      <path
         id="path28"
         d="m 18.773219,-1.904375 c 0,-0.7265625 -0.28125,-1.5117187 -0.960938,-1.5117187 -1.042968,0 -2.167968,1.875 -2.167968,3.46874995 0,0.83203125 0.328125,1.51171875 0.972656,1.51171875 1.054687,0 2.15625,-1.8984375 2.15625,-3.46875 z m -2.332031,0.8554688 c 0.351562,-1.5117188 0.949218,-2.1679688 1.359375,-2.1679688 0.445312,0 0.445312,0.7734375 0.445312,0.9023438 0,0.2695312 -0.04687,0.6796875 -0.199219,1.265625 z m 1.546875,0.2460937 c -0.199219,0.76171875 -0.363282,1.13671875 -0.5625,1.4765625 -0.222657,0.3632813 -0.503907,0.6914063 -0.808594,0.6914063 -0.386719,0 -0.445313,-0.5273438 -0.445313,-0.9023438 0,-0.45703125 0.128907,-1.0078125 0.199219,-1.265625 z m 0,0"
         style="fill:#000000;fill-opacity:1;fill-rule:nonzero;stroke:none" />
    </g>
    <path
       id="path29"
       d="M 229.16705,-14.52771 V -57.04794"
       style="fill:none;stroke:#000000;stroke-width:0.70865;stroke-linecap:butt;stroke-linejoin:miter;stroke-miterlimit:10;stroke-dasharray:none;stroke-opacity:1"
       transform="matrix(1.3333333,0,0,-1.3333333,30.828,123.476)" />
    <path
       id="path30"
       d="M 0,0 -9.96277,-6.37796"
       style="fill:none;stroke:#000000;stroke-width:0.70865;stroke-linecap:butt;stroke-linejoin:miter;stroke-miterlimit:10;stroke-dasharray:none;stroke-opacity:1"
       transform="matrix(0,1.3333333,1.3333333,0,336.38407,199.53992)" />
    <g
       id="g30"
       aria-label="R:c"
       transform="matrix(1.3333333,0,0,1.3333333,324.55733,32.582667)">
      <path
         id="path31"
         d="m 2.2275078,-3.5161016 v -2.578125 c 0,-0.234375 0,-0.3515625 0.2226563,-0.3867187 0.1054687,-0.011719 0.3867187,-0.011719 0.5859375,-0.011719 0.9023437,0 2.015625,0.035156 2.015625,1.4765625 0,0.6914063 -0.234375,1.5 -1.7109375,1.5 z m 2.109375,0.1289063 c 0.9609375,-0.234375 1.7460938,-0.84375 1.7460938,-1.6289063 0,-0.9492187 -1.1367188,-1.7929687 -2.6015625,-1.7929687 H 0.35250781 v 0.3164062 h 0.234375 c 0.77343749,0 0.78515629,0.1054688 0.78515629,0.46875 v 5.25000004 c 0,0.3515625 -0.011719,0.46875 -0.78515629,0.46875 h -0.234375 V -4.765625e-4 C 0.70407031,-0.03563281 1.4189141,-0.03563281 1.8056328,-0.03563281 c 0.3867188,0 1.0898438,0 1.453125,0.0351562475 V -0.30516406 h -0.234375 c -0.7734375,0 -0.796875,-0.1171875 -0.796875,-0.46875 V -3.2934453 h 1.1484375 c 0.1640625,0 0.5742188,0 0.9257813,0.3398437 0.3867187,0.3515625 0.3867187,0.65625 0.3867187,1.3242188 0,0.65624999 0,1.05468749 0.3984375,1.42968749 0.4101563,0.36328125 0.9609375,0.421875 1.2539063,0.421875 0.7851562,0 0.9492187,-0.8203125 0.9492187,-1.1015625 0,-0.0585938 0,-0.16406249 -0.1289062,-0.16406249 -0.1054688,0 -0.1054688,0.0820312 -0.1171875,0.15234374 -0.058594,0.71484375 -0.4101563,0.8906249975 -0.65625,0.8906249975 -0.4921875,0 -0.5742188,-0.5039062475 -0.703125,-1.4296875375 l -0.140625,-0.796875 C 5.3681328,-2.8715703 4.8876641,-3.1996953 4.3368828,-3.3871953 Z m 4.9072266,-0.375 c 0,-0.2929688 -0.234375,-0.5273438 -0.5273438,-0.5273438 -0.28125,0 -0.5273437,0.234375 -0.5273437,0.5273438 0,0.28125 0.2460937,0.5273437 0.5273437,0.5273437 0.2929688,0 0.5273438,-0.2460937 0.5273438,-0.5273437 z m 0,3.23437499 c 0,-0.29296875 -0.234375,-0.52734379 -0.5273438,-0.52734379 -0.28125,0 -0.5273437,0.23437504 -0.5273437,0.52734379 0,0.29296875 0.2460937,0.5273437475 0.5273437,0.5273437475 0.2929688,0 0.5273438,-0.2343749975 0.5273438,-0.5273437475 z m 0,0"
         style="fill:#000000;fill-opacity:1;fill-rule:nonzero;stroke:none" />
      <path
         id="path32"
         d="m 17.371063,-3.7856328 c -0.164063,0 -0.304688,0 -0.445313,0.140625 -0.152344,0.1523437 -0.175781,0.3164062 -0.175781,0.3867187 0,0.234375 0.175781,0.3515625 0.363281,0.3515625 0.292969,0 0.5625,-0.2460937 0.5625,-0.6445312 0,-0.4804688 -0.46875,-0.8554688 -1.171875,-0.8554688 -1.347656,0 -2.671875,1.4296875 -2.671875,2.8359375 0,0.89062504 0.574219,1.67578129 1.617188,1.67578129 1.417968,0 2.261718,-1.0546875 2.261718,-1.17187499 0,-0.058594 -0.07031,-0.1289063 -0.128906,-0.1289063 -0.04687,0 -0.07031,0.023437 -0.128906,0.09375 -0.785156,0.99609379 -1.875,0.99609379 -1.992188,0.99609379 -0.621093,0 -0.890625,-0.4921875 -0.890625,-1.08984379 0,-0.4101562 0.199219,-1.3710937 0.539063,-1.9921875 0.304687,-0.5625 0.855469,-0.9960937 1.40625,-0.9960937 0.328125,0 0.714844,0.1289062 0.855469,0.3984375 z m 0,0"
         style="fill:#000000;fill-opacity:1;fill-rule:nonzero;stroke:none" />
    </g>
    <path
       id="path33"
       d="M 229.16705,14.52771 V 57.04794"
       style="fill:none;stroke:#000000;stroke-width:0.70865;stroke-linecap:butt;stroke-linejoin:miter;stroke-miterlimit:10;stroke-dasharray:none;stroke-opacity:1"
       transform="matrix(1.3333333,0,0,-1.3333333,30.828,123.476)" />
    <path
       id="path34"
       d="M 0,0 -9.96277,-6.37796"
       style="fill:none;stroke:#000000;stroke-width:0.70865;stroke-linecap:butt;stroke-linejoin:miter;stroke-miterlimit:10;stroke-dasharray:none;stroke-opacity:1"
       transform="matrix(0,-1.3333333,-1.3333333,0,336.38407,47.41208)" />
    <g
       id="g34"
       aria-label="Se:τ(t)"
       transform="matrix(1.3333333,0,0,1.3333333,419.51333,126.79733)">
      <path
         id="path35"
         d="M 3.4792578,-3.8675312 2.2019141,-4.1722187 C 1.5808203,-4.3245625 1.1941016,-4.863625 1.1941016,-5.4378437 c 0,-0.703125 0.5390625,-1.3007813 1.3125,-1.3007813 1.6640625,0 1.8867187,1.6289063 1.9453125,2.0742188 0.011719,0.058594 0.011719,0.1171875 0.1171875,0.1171875 0.1289062,0 0.1289062,-0.046875 0.1289062,-0.234375 V -6.7855 c 0,-0.1640625 0,-0.234375 -0.1054687,-0.234375 -0.070312,0 -0.082031,0.011719 -0.1523438,0.1289063 l -0.3515625,0.5625 c -0.2929687,-0.28125 -0.703125,-0.6914063 -1.59375,-0.6914063 -1.1015625,0 -1.93359374,0.8789063 -1.93359374,1.9335938 0,0.8203125 0.52734374,1.546875 1.30078124,1.8164062 0.1054688,0.046875 0.6210938,0.1640625 1.3125,0.328125 0.2695313,0.070312 0.5742188,0.140625 0.84375,0.515625 0.2109375,0.2578125 0.3164063,0.5859375 0.3164063,0.9140625 0,0.703125 -0.5039063,1.41796875 -1.3359375,1.41796875 -0.2929688,0 -1.0429688,-0.046875 -1.5703125,-0.5390625 C 0.84253906,-1.1605 0.81910156,-1.8050312 0.80738281,-2.1565937 c -0.0117188,-0.1054688 -0.09375,-0.1054688 -0.1171875,-0.1054688 -0.12890625,0 -0.12890625,0.070312 -0.12890625,0.2460938 v 1.99218745 c 0,0.17578125 0,0.24609375 0.10546875,0.24609375 0.0703125,0 0.0820313,-0.0234375 0.15234375,-0.12890625 0,-0.01171875 0.0234375,-0.046875 0.35156254,-0.57421875 0.3164062,0.33984375 0.9492187,0.703125 1.8398437,0.703125 1.1601563,0 1.9570313,-0.984375 1.9570313,-2.0742187 0,-0.9960938 -0.65625,-1.8164063 -1.4882813,-2.015625 z m 3.1699219,1.359375 c 0.058594,-1.4882813 0.9023437,-1.734375 1.2421875,-1.734375 1.0195312,0 1.125,1.3476562 1.125,1.734375 z m -0.011719,0.2109375 h 2.7890625 c 0.2109375,0 0.2460938,0 0.2460938,-0.2109375 0,-0.984375 -0.5390625,-1.9570313 -1.78125,-1.9570313 -1.1601563,0 -2.0742188,1.03125 -2.0742188,2.2734375 0,1.3359375 1.0429688,2.296875 2.1914063,2.296875 1.21875,0 1.6640625,-1.1015625 1.6640625,-1.2890625 0,-0.1054687 -0.082031,-0.1171875 -0.1289063,-0.1171875 -0.09375,0 -0.1171875,0.058594 -0.1289062,0.140625 -0.3515625,1.01953125 -1.2539063,1.01953125 -1.3476563,1.01953125 -0.5039062,0 -0.9023437,-0.29296875 -1.125,-0.66796875 C 6.6374609,-1.2894062 6.6374609,-1.9456562 6.6374607,-2.2972187 Z m 5.2353523,-1.4648438 c 0,-0.2929687 -0.234375,-0.5273437 -0.527344,-0.5273437 -0.28125,0 -0.527344,0.234375 -0.527344,0.5273437 0,0.28125 0.246094,0.5273438 0.527344,0.5273438 0.292969,0 0.527344,-0.2460938 0.527344,-0.5273438 z m 0,3.234375 c 0,-0.29296875 -0.234375,-0.5273437 -0.527344,-0.5273437 -0.28125,0 -0.527344,0.23437495 -0.527344,0.5273437 0,0.29296875 0.246094,0.52734375 0.527344,0.52734375 0.292969,0 0.527344,-0.234375 0.527344,-0.52734375 z m 0,0"
         style="fill:#000000;fill-opacity:1;fill-rule:nonzero;stroke:none" />
      <path
         id="path36"
         d="m 20.087656,-3.7151875 h 1.675782 c 0.128906,0 0.480468,0 0.480468,-0.3398437 0,-0.234375 -0.199218,-0.234375 -0.398437,-0.234375 h -2.789063 c -0.199218,0 -0.585937,0 -1.019531,0.46875 -0.328125,0.3515625 -0.609375,0.8320312 -0.609375,0.890625 0,0.011719 0,0.1054687 0.117188,0.1054687 0.08203,0 0.105468,-0.046875 0.164062,-0.1289062 0.480469,-0.7617188 1.054688,-0.7617188 1.265625,-0.7617188 h 0.820313 l -0.972657,3.19921875 c -0.03516,0.1171875 -0.105468,0.328125 -0.105468,0.36328125 0,0.1171875 0.07031,0.26953125 0.292968,0.26953125 0.328125,0 0.375,-0.28125 0.410157,-0.421875 z m 0,0"
         style="fill:#000000;fill-opacity:1;fill-rule:nonzero;stroke:none" />
      <path
         id="path37"
         d="m 25.935313,2.3902813 c 0,-0.035156 0,-0.046875 -0.164063,-0.2226563 -1.242187,-1.25390625 -1.570312,-3.12890625 -1.570312,-4.6640625 0,-1.7226562 0.386718,-3.4570312 1.605468,-4.7109375 0.128907,-0.1171875 0.128907,-0.1289062 0.128907,-0.1640625 0,-0.070312 -0.03516,-0.1054687 -0.09375,-0.1054687 -0.105469,0 -0.996094,0.6796875 -1.582032,1.9453125 -0.515625,1.1015625 -0.632812,2.203125 -0.632812,3.0351562 0,0.7851563 0.117187,1.9921875 0.65625,3.1171875 0.597656,1.21875 1.453125,1.875 1.558594,1.875 0.05859,0 0.09375,-0.035156 0.09375,-0.1054687 z m 0,0"
         style="fill:#000000;fill-opacity:1;fill-rule:nonzero;stroke:none" />
      <path
         id="path38"
         d="m 28.566172,-3.9847187 h 0.9375 c 0.199219,0 0.304687,0 0.304687,-0.1992188 0,-0.1054687 -0.105468,-0.1054687 -0.28125,-0.1054687 h -0.878906 c 0.363281,-1.4179688 0.410156,-1.6171875 0.410156,-1.6757813 0,-0.1757812 -0.117187,-0.2695312 -0.292968,-0.2695312 -0.02344,0 -0.304688,0.011719 -0.398438,0.3515625 l -0.386719,1.59375 h -0.9375 c -0.199218,0 -0.292968,0 -0.292968,0.1875 0,0.1171875 0.07031,0.1171875 0.269531,0.1171875 h 0.878906 c -0.714844,2.8242187 -0.75,2.99999995 -0.75,3.1757812 0,0.5390625 0.375,0.9140625 0.914063,0.9140625 1.007812,0 1.582031,-1.453125 1.582031,-1.5351562 0,-0.09375 -0.08203,-0.09375 -0.117188,-0.09375 -0.09375,0 -0.105468,0.023437 -0.152343,0.140625 -0.433594,1.03124995 -0.960938,1.2773437 -1.300782,1.2773437 -0.199218,0 -0.304687,-0.12890625 -0.304687,-0.45703125 0,-0.24609375 0.02344,-0.31640625 0.05859,-0.48046875 z m 0,0"
         style="fill:#000000;fill-opacity:1;fill-rule:nonzero;stroke:none" />
      <path
         id="path39"
         d="m 32.995859,-2.4964375 c 0,-0.7734375 -0.117187,-1.9804687 -0.65625,-3.1054687 -0.597656,-1.21875 -1.464843,-1.875 -1.558593,-1.875 -0.05859,0 -0.105469,0.046875 -0.105469,0.1054687 0,0.035156 0,0.046875 0.199219,0.234375 0.972656,0.984375 1.535156,2.5664063 1.535156,4.640625 0,1.7109375 -0.363281,3.45703125 -1.59375,4.7226563 -0.140625,0.1171875 -0.140625,0.1289062 -0.140625,0.1640625 0,0.058594 0.04687,0.1054687 0.105469,0.1054687 0.09375,0 0.996093,-0.6796875 1.582031,-1.9453125 0.503906,-1.1015625 0.632812,-2.203125 0.632812,-3.046875 z m 0,0"
         style="fill:#000000;fill-opacity:1;fill-rule:nonzero;stroke:none" />
    </g>
    <path
       id="path40"
       d="M 243.69478,0 H 286.215"
       style="fill:none;stroke:#000000;stroke-width:0.70865;stroke-linecap:butt;stroke-linejoin:miter;stroke-miterlimit:10;stroke-dasharray:none;stroke-opacity:1"
       transform="matrix(1.3333333,0,0,-1.3333333,30.828,123.476)" />
    <path
       id="path41"
       d="M 0,0 -9.96277,-6.37796"
       style="fill:none;stroke:#000000;stroke-width:0.70865;stroke-linecap:butt;stroke-linejoin:miter;stroke-miterlimit:10;stroke-dasharray:none;stroke-opacity:1"
       transform="matrix(1.3333333,0,0,-1.3333333,412.448,123.476)" />
  </g>
</svg>
